<svg width="80" height="80" viewBox="0 0 80 80" fill="none" xmlns="http://www.w3.org/2000/svg">
<rect width="80" height="80" rx="10" fill="#24273F"/>
<path d="M20.6081 25.3791C17.7222 29.2657 16 34.0599 16 39.273C16 52.1197 26.4263 62.546 39.273 62.546" stroke="white" stroke-width="4" stroke-linecap="round" stroke-linejoin="round"/>
<path d="M62.5456 39.273C62.5456 26.4263 52.1193 16 39.2726 16C35.7351 16 32.407 16.7913 29.4048 18.1877" stroke="white" stroke-width="4" stroke-linecap="round" stroke-linejoin="round"/>
<path d="M50.6535 54.0271V53.4481C50.6535 51.5735 51.8114 50.581 52.9693 49.7815C54.0996 49.0096 55.2296 48.0172 55.2296 46.1976C55.2296 43.6613 53.1898 41.6212 50.6535 41.6212C48.1172 41.6212 46.0771 43.6613 46.0771 46.1976" stroke="white" stroke-width="4" stroke-linecap="round" stroke-linejoin="round"/>
<path d="M50.6411 60.616H50.6652" stroke="white" stroke-width="3" stroke-linecap="round" stroke-linejoin="round"/>
</svg>
