<svg width="285" height="337" viewBox="0 0 285 337" fill="none" xmlns="http://www.w3.org/2000/svg">
<rect x="1" y="1" width="283" height="335" fill="#24273F" stroke="#485082" stroke-width="2"/>
<path d="M33.752 258.448L33.56 255.264H34.936L34.76 258.448H33.752ZM35.912 258.448L35.72 255.264H37.096L36.92 258.448H35.912ZM44.9039 256.832V258.032H40.3599V261.76H44.4239V262.96H40.3599V266.8H44.9039V268H38.9039V256.832H44.9039ZM51.683 268L49.603 264.736L47.603 268H46.083L48.915 263.648L46.083 259.232H47.731L49.811 262.48L51.795 259.232H53.315L50.499 263.568L53.331 268H51.683ZM56.2193 260.848C56.7473 259.92 57.8993 259.088 59.4993 259.088C61.8513 259.088 63.6593 260.848 63.6593 263.584C63.6593 266.304 61.8513 268.144 59.4993 268.144C57.8993 268.144 56.7633 267.28 56.2193 266.384V272.16H54.7633V259.232H56.2193V260.848ZM62.1713 263.584C62.1713 261.52 60.8113 260.352 59.1953 260.352C57.6113 260.352 56.2193 261.568 56.2193 263.6C56.2193 265.664 57.6113 266.864 59.1953 266.864C60.8113 266.864 62.1713 265.648 62.1713 263.584ZM65.5758 268V256.16H67.0318V268H65.5758ZM77.8333 263.6C77.8333 266.384 75.8333 268.144 73.3373 268.144C70.8573 268.144 68.9693 266.384 68.9693 263.6C68.9693 260.832 70.9213 259.088 73.4013 259.088C75.8973 259.088 77.8333 260.832 77.8333 263.6ZM70.4573 263.6C70.4573 265.824 71.8173 266.864 73.3373 266.864C74.8573 266.864 76.3453 265.824 76.3453 263.6C76.3453 261.392 74.8893 260.352 73.3853 260.352C71.8493 260.352 70.4573 261.392 70.4573 263.6ZM81.2036 263.232V268H79.7476V259.232H81.2036V260.656C81.6996 259.68 82.6436 259.072 84.0356 259.072V260.576H83.6516C82.2596 260.576 81.2036 261.2 81.2036 263.232ZM89.4444 260.32C88.0204 260.32 86.8364 261.264 86.6764 262.976H92.2124C92.2284 261.264 90.9484 260.32 89.4444 260.32ZM93.5404 265.296C93.0924 266.896 91.6844 268.144 89.5084 268.144C87.0124 268.144 85.1724 266.384 85.1724 263.6C85.1724 260.832 86.9484 259.088 89.5084 259.088C92.0524 259.088 93.7164 260.88 93.7164 263.28C93.7164 263.6 93.7004 263.856 93.6684 264.16H86.6604C86.7724 265.936 88.0204 266.912 89.5084 266.912C90.8204 266.912 91.6524 266.24 91.9724 265.296H93.5404ZM103.632 260.32C102.208 260.32 101.024 261.264 100.864 262.976H106.4C106.416 261.264 105.136 260.32 103.632 260.32ZM107.728 265.296C107.28 266.896 105.872 268.144 103.696 268.144C101.2 268.144 99.3599 266.384 99.3599 263.6C99.3599 260.832 101.136 259.088 103.696 259.088C106.24 259.088 107.904 260.88 107.904 263.28C107.904 263.6 107.888 263.856 107.856 264.16H100.848C100.96 265.936 102.208 266.912 103.696 266.912C105.008 266.912 105.84 266.24 106.16 265.296H107.728ZM108.786 259.232H110.354L113.09 266.656L115.81 259.232H117.362L113.922 268H112.226L108.786 259.232ZM122.523 260.32C121.099 260.32 119.914 261.264 119.755 262.976H125.291C125.307 261.264 124.027 260.32 122.523 260.32ZM126.619 265.296C126.171 266.896 124.763 268.144 122.587 268.144C120.091 268.144 118.251 266.384 118.251 263.6C118.251 260.832 120.027 259.088 122.587 259.088C125.131 259.088 126.795 260.88 126.795 263.28C126.795 263.6 126.779 263.856 126.747 264.16H119.739C119.851 265.936 121.099 266.912 122.587 266.912C123.899 266.912 124.731 266.24 125.051 265.296H126.619ZM135.132 268V263.04C135.132 261.248 134.156 260.336 132.684 260.336C131.196 260.336 130.172 261.264 130.172 263.152V268H128.716V259.232H130.172V260.48C130.748 259.568 131.804 259.072 132.988 259.072C135.02 259.072 136.572 260.32 136.572 262.832V268H135.132ZM139.271 265.6V260.432H138.135V259.232H139.271V257.024H140.727V259.232H143.015V260.432H140.727V265.6C140.727 266.464 141.047 266.768 141.943 266.768H143.015V268H141.703C140.151 268 139.271 267.36 139.271 265.6ZM153.099 263.6C153.099 266.384 151.099 268.144 148.603 268.144C146.123 268.144 144.235 266.384 144.235 263.6C144.235 260.832 146.187 259.088 148.667 259.088C151.163 259.088 153.099 260.832 153.099 263.6ZM145.723 263.6C145.723 265.824 147.083 266.864 148.603 266.864C150.123 266.864 151.611 265.824 151.611 263.6C151.611 261.392 150.155 260.352 148.651 260.352C147.115 260.352 145.723 261.392 145.723 263.6ZM161.317 265.616C161.317 267.056 160.053 268.144 158.117 268.144C156.069 268.144 154.629 267.024 154.533 265.424H156.037C156.117 266.272 156.869 266.912 158.101 266.912C159.253 266.912 159.893 266.336 159.893 265.616C159.893 263.664 154.709 264.8 154.709 261.536C154.709 260.192 155.973 259.088 157.925 259.088C159.861 259.088 161.141 260.128 161.237 261.84H159.781C159.717 260.96 159.045 260.32 157.877 260.32C156.805 260.32 156.165 260.832 156.165 261.536C156.165 263.616 161.253 262.48 161.317 265.616ZM171.366 260.32C169.942 260.32 168.758 261.264 168.598 262.976H174.134C174.15 261.264 172.87 260.32 171.366 260.32ZM175.462 265.296C175.014 266.896 173.606 268.144 171.43 268.144C168.934 268.144 167.094 266.384 167.094 263.6C167.094 260.832 168.87 259.088 171.43 259.088C173.974 259.088 175.638 260.88 175.638 263.28C175.638 263.6 175.622 263.856 175.59 264.16H168.582C168.694 265.936 169.942 266.912 171.43 266.912C172.742 266.912 173.574 266.24 173.894 265.296H175.462ZM181.826 268V256.16H183.282V268H181.826ZM185.763 268V259.232H187.219V268H185.763ZM184.643 257.488L188.051 255.488V256.752L184.643 258.576V257.488ZM189.157 263.584C189.157 260.848 190.965 259.088 193.333 259.088C194.709 259.088 195.973 259.792 196.581 260.8V256.16H198.053V268H196.581V266.352C196.053 267.328 194.917 268.144 193.317 268.144C190.965 268.144 189.157 266.304 189.157 263.584ZM196.581 263.6C196.581 261.568 195.205 260.352 193.605 260.352C192.005 260.352 190.645 261.52 190.645 263.584C190.645 265.648 192.005 266.864 193.605 266.864C195.205 266.864 196.581 265.664 196.581 263.6ZM204.241 260.32C202.817 260.32 201.633 261.264 201.473 262.976H207.009C207.025 261.264 205.745 260.32 204.241 260.32ZM208.337 265.296C207.889 266.896 206.481 268.144 204.305 268.144C201.809 268.144 199.969 266.384 199.969 263.6C199.969 260.832 201.745 259.088 204.305 259.088C206.849 259.088 208.513 260.88 208.513 263.28C208.513 263.6 208.497 263.856 208.465 264.16H201.457C201.569 265.936 202.817 266.912 204.305 266.912C205.617 266.912 206.449 266.24 206.769 265.296H208.337ZM211.891 263.232V268H210.435V259.232H211.891V260.656C212.387 259.68 213.331 259.072 214.723 259.072V260.576H214.339C212.947 260.576 211.891 261.2 211.891 263.232ZM220.132 260.32C218.708 260.32 217.524 261.264 217.364 262.976H222.9C222.916 261.264 221.636 260.32 220.132 260.32ZM224.228 265.296C223.78 266.896 222.372 268.144 220.196 268.144C217.7 268.144 215.86 266.384 215.86 263.6C215.86 260.832 217.636 259.088 220.196 259.088C222.74 259.088 224.404 260.88 224.404 263.28C224.404 263.6 224.388 263.856 224.356 264.16H217.348C217.46 265.936 218.708 266.912 220.196 266.912C221.508 266.912 222.34 266.24 222.66 265.296H224.228ZM232.63 265.616C232.63 267.056 231.366 268.144 229.43 268.144C227.382 268.144 225.942 267.024 225.846 265.424H227.35C227.43 266.272 228.182 266.912 229.414 266.912C230.566 266.912 231.206 266.336 231.206 265.616C231.206 263.664 226.022 264.8 226.022 261.536C226.022 260.192 227.286 259.088 229.238 259.088C231.174 259.088 232.454 260.128 232.55 261.84H231.094C231.03 260.96 230.358 260.32 229.19 260.32C228.118 260.32 227.478 260.832 227.478 261.536C227.478 263.616 232.566 262.48 232.63 265.616ZM34.232 292V280.16H35.688V284.496C36.264 283.568 37.352 283.072 38.584 283.072C40.536 283.072 42.088 284.32 42.088 286.832V292H40.648V287.04C40.648 285.248 39.672 284.336 38.2 284.336C36.712 284.336 35.688 285.264 35.688 287.152V292H34.232ZM44.4664 292V283.232H45.9224V292H44.4664ZM45.2184 281.808C44.6584 281.808 44.2264 281.376 44.2264 280.816C44.2264 280.256 44.6584 279.824 45.2184 279.824C45.7464 279.824 46.1784 280.256 46.1784 280.816C46.1784 281.376 45.7464 281.808 45.2184 281.808ZM54.7079 289.616C54.7079 291.056 53.4439 292.144 51.5079 292.144C49.4599 292.144 48.0199 291.024 47.9239 289.424H49.4279C49.5079 290.272 50.2599 290.912 51.4919 290.912C52.6439 290.912 53.2839 290.336 53.2839 289.616C53.2839 287.664 48.0999 288.8 48.0999 285.536C48.0999 284.192 49.3639 283.088 51.3159 283.088C53.2519 283.088 54.5319 284.128 54.6279 285.84H53.1719C53.1079 284.96 52.4359 284.32 51.2679 284.32C50.1959 284.32 49.5559 284.832 49.5559 285.536C49.5559 287.616 54.6439 286.48 54.7079 289.616ZM57.0833 289.6V284.432H55.9473V283.232H57.0833V281.024H58.5393V283.232H60.8273V284.432H58.5393V289.6C58.5393 290.464 58.8593 290.768 59.7552 290.768H60.8273V292H59.5153C57.9633 292 57.0833 291.36 57.0833 289.6ZM70.9114 287.6C70.9114 290.384 68.9114 292.144 66.4154 292.144C63.9354 292.144 62.0474 290.384 62.0474 287.6C62.0474 284.832 63.9994 283.088 66.4794 283.088C68.9754 283.088 70.9114 284.832 70.9114 287.6ZM63.5354 287.6C63.5354 289.824 64.8954 290.864 66.4154 290.864C67.9354 290.864 69.4234 289.824 69.4234 287.6C69.4234 285.392 67.9674 284.352 66.4634 284.352C64.9274 284.352 63.5354 285.392 63.5354 287.6ZM64.6394 281.376L68.0474 279.376V280.64L64.6394 282.464V281.376ZM74.2818 287.232V292H72.8258V283.232H74.2818V284.656C74.7778 283.68 75.7218 283.072 77.1138 283.072V284.576H76.7298C75.3378 284.576 74.2818 285.2 74.2818 287.232ZM78.7945 292V283.232H80.2505V292H78.7945ZM79.5465 281.808C78.9865 281.808 78.5545 281.376 78.5545 280.816C78.5545 280.256 78.9865 279.824 79.5465 279.824C80.0745 279.824 80.5065 280.256 80.5065 280.816C80.5065 281.376 80.0745 281.808 79.5465 281.808ZM82.188 287.6C82.188 284.848 83.964 283.088 86.46 283.088C88.636 283.088 90.06 284.208 90.508 286.048H88.94C88.636 284.992 87.756 284.32 86.46 284.32C84.86 284.32 83.676 285.456 83.676 287.6C83.676 289.776 84.86 290.912 86.46 290.912C87.756 290.912 88.62 290.288 88.94 289.184H90.508C90.06 290.928 88.636 292.144 86.46 292.144C83.964 292.144 82.188 290.384 82.188 287.6ZM100.771 287.6C100.771 290.384 98.7708 292.144 96.2748 292.144C93.7948 292.144 91.9068 290.384 91.9068 287.6C91.9068 284.832 93.8588 283.088 96.3388 283.088C98.8348 283.088 100.771 284.832 100.771 287.6ZM93.3948 287.6C93.3948 289.824 94.7548 290.864 96.2748 290.864C97.7948 290.864 99.2828 289.824 99.2828 287.6C99.2828 285.392 97.8268 284.352 96.3228 284.352C94.7868 284.352 93.3948 285.392 93.3948 287.6ZM108.989 289.616C108.989 291.056 107.725 292.144 105.789 292.144C103.741 292.144 102.301 291.024 102.205 289.424H103.709C103.789 290.272 104.541 290.912 105.773 290.912C106.925 290.912 107.565 290.336 107.565 289.616C107.565 287.664 102.381 288.8 102.381 285.536C102.381 284.192 103.645 283.088 105.597 283.088C107.533 283.088 108.813 284.128 108.909 285.84H107.453C107.389 284.96 106.717 284.32 105.549 284.32C104.477 284.32 103.837 284.832 103.837 285.536C103.837 287.616 108.925 286.48 108.989 289.616ZM112.469 291.104C112.469 291.664 112.037 292.096 111.509 292.096C110.949 292.096 110.517 291.664 110.517 291.104C110.517 290.544 110.949 290.112 111.509 290.112C112.037 290.112 112.469 290.544 112.469 291.104ZM113.924 282.448L113.732 279.264H115.108L114.932 282.448H113.924ZM116.084 282.448L115.892 279.264H117.268L117.092 282.448H116.084Z" fill="white" fill-opacity="0.7"/>
<path d="M37.554 52.269C34.702 56.11 33 60.848 33 66C33 78.696 43.304 89 56 89" stroke="white" stroke-width="3" stroke-linecap="round" stroke-linejoin="round"/>
<path d="M78.9996 66C78.9996 53.304 68.6956 43 55.9996 43C52.5036 43 49.2146 43.782 46.2476 45.162" stroke="white" stroke-width="3" stroke-linecap="round" stroke-linejoin="round"/>
<path d="M67.2468 80.581V80.0089C67.2468 78.1562 68.3911 77.1754 69.5354 76.3853C70.6525 75.6224 71.7692 74.6416 71.7692 72.8434C71.7692 70.3369 69.7534 68.3206 67.2468 68.3206C64.7403 68.3206 62.7241 70.3369 62.7241 72.8434" stroke="white" stroke-width="3" stroke-linecap="round" stroke-linejoin="round"/>
<path d="M67.2345 87.0926H67.259" stroke="white" stroke-width="3" stroke-linecap="round" stroke-linejoin="round"/>
<path d="M45.384 146V138.704H37.536V146H34.8V129.32H37.536V136.472H45.384V129.32H48.12V146H45.384ZM51.7219 146V132.776H54.4579V146H51.7219ZM53.1139 131.024C52.1299 131.024 51.3619 130.256 51.3619 129.272C51.3619 128.288 52.1299 127.52 53.1139 127.52C54.0739 127.52 54.8419 128.288 54.8419 129.272C54.8419 130.256 54.0739 131.024 53.1139 131.024ZM67.914 142.304C67.914 144.536 65.97 146.216 62.85 146.216C59.682 146.216 57.45 144.344 57.33 141.944H60.162C60.258 143.024 61.29 143.912 62.802 143.912C64.386 143.912 65.226 143.24 65.226 142.328C65.226 139.736 57.546 141.224 57.546 136.376C57.546 134.264 59.514 132.56 62.634 132.56C65.634 132.56 67.602 134.168 67.746 136.808H65.01C64.914 135.656 64.026 134.864 62.538 134.864C61.074 134.864 60.306 135.464 60.306 136.352C60.306 139.016 67.77 137.528 67.914 142.304ZM71.3023 142.328V135.008H69.7423V132.776H71.3023V129.488H74.0623V132.776H77.2783V135.008H74.0623V142.328C74.0623 143.312 74.4463 143.72 75.5983 143.72H77.2783V146H75.1183C72.7663 146 71.3023 145.016 71.3023 142.328ZM92.4 139.376C92.4 143.528 89.328 146.216 85.536 146.216C81.768 146.216 78.912 143.528 78.912 139.376C78.912 135.224 81.888 132.56 85.656 132.56C89.424 132.56 92.4 135.224 92.4 139.376ZM81.696 139.376C81.696 142.376 83.472 143.84 85.536 143.84C87.576 143.84 89.592 142.376 89.592 139.376C89.592 136.376 87.648 134.936 85.608 134.936C83.544 134.936 81.696 136.376 81.696 139.376ZM82.824 129.608L88.128 126.68V129.008L82.824 131.624V129.608ZM97.8407 139.04V146H95.1047V132.776H97.8407V134.696C98.6087 133.376 99.9287 132.56 101.801 132.56V135.392H101.105C99.0887 135.392 97.8407 136.232 97.8407 139.04ZM104.316 146V132.776H107.052V146H104.316ZM105.708 131.024C104.724 131.024 103.956 130.256 103.956 129.272C103.956 128.288 104.724 127.52 105.708 127.52C106.668 127.52 107.436 128.288 107.436 129.272C107.436 130.256 106.668 131.024 105.708 131.024ZM109.732 139.328C109.732 135.248 112.492 132.56 115.972 132.56C118.204 132.56 119.74 133.616 120.556 134.696V132.776H123.316V146H120.556V144.032C119.716 145.16 118.132 146.216 115.924 146.216C112.492 146.216 109.732 143.408 109.732 139.328ZM120.556 139.376C120.556 136.544 118.612 134.936 116.548 134.936C114.508 134.936 112.54 136.472 112.54 139.328C112.54 142.184 114.508 143.84 116.548 143.84C118.612 143.84 120.556 142.232 120.556 139.376ZM34.8 182V165.32H37.752L43.608 178.4L49.44 165.32H52.368V182H49.632V170.576L44.544 182H42.648L37.536 170.576V182H34.8ZM67.9401 168.776V182H65.2041V180.416C64.3401 181.544 62.8521 182.192 61.2921 182.192C58.1961 182.192 55.8441 180.248 55.8441 176.552V168.776H58.5561V176.144C58.5561 178.568 59.8761 179.816 61.8681 179.816C63.8841 179.816 65.2041 178.568 65.2041 176.144V168.776H67.9401ZM80.934 182V174.608C80.934 172.184 79.614 170.936 77.622 170.936C75.606 170.936 74.286 172.184 74.286 174.608V182H71.55V168.776H74.286V170.288C75.174 169.208 76.638 168.56 78.222 168.56C81.318 168.56 83.646 170.504 83.646 174.2V182H80.934ZM86.2239 175.328C86.2239 171.248 88.9839 168.56 92.4879 168.56C94.2159 168.56 96.0399 169.376 97.0479 170.624V164.24H99.8079V182H97.0479V180.008C96.2079 181.208 94.6239 182.216 92.4639 182.216C88.9839 182.216 86.2239 179.408 86.2239 175.328ZM97.0479 175.376C97.0479 172.544 95.1039 170.936 93.0399 170.936C90.9999 170.936 89.0319 172.472 89.0319 175.328C89.0319 178.184 90.9999 179.84 93.0399 179.84C95.1039 179.84 97.0479 178.232 97.0479 175.376ZM103.402 182V168.776H106.138V182H103.402ZM104.794 167.024C103.81 167.024 103.042 166.256 103.042 165.272C103.042 164.288 103.81 163.52 104.794 163.52C105.754 163.52 106.522 164.288 106.522 165.272C106.522 166.256 105.754 167.024 104.794 167.024ZM108.818 175.328C108.818 171.248 111.578 168.56 115.058 168.56C117.29 168.56 118.826 169.616 119.642 170.696V168.776H122.402V182H119.642V180.032C118.802 181.16 117.218 182.216 115.01 182.216C111.578 182.216 108.818 179.408 108.818 175.328ZM119.642 175.376C119.642 172.544 117.698 170.936 115.634 170.936C113.594 170.936 111.626 172.472 111.626 175.328C111.626 178.184 113.594 179.84 115.634 179.84C117.698 179.84 119.642 178.232 119.642 175.376ZM125.995 182V164.24H128.731V182H125.995Z" fill="white"/>
<path d="M33 221H252" stroke="white" stroke-opacity="0.7" stroke-linecap="round"/>
</svg>
