<svg width="285" height="337" viewBox="0 0 285 337" fill="none" xmlns="http://www.w3.org/2000/svg">
<rect x="1" y="1" width="283" height="335" fill="#24273F" stroke="#485082" stroke-width="2"/>
<path d="M33 230H252" stroke="white" stroke-opacity="0.7" stroke-linecap="round"/>
<path d="M41.04 54.94C38.5 58.3 37 62.48 37 67C37 78.04 45.96 87 57 87C68.04 87 77 78.04 77 67C77 55.96 68.04 47 57 47" stroke="white" stroke-width="1.5" stroke-linecap="round" stroke-linejoin="round"/>
<path d="M43 67C43 74.74 49.26 81 57 81C64.74 81 71 74.74 71 67C71 59.26 64.74 53 57 53" stroke="white" stroke-width="1.5" stroke-linecap="round" stroke-linejoin="round"/>
<path d="M57 75C61.42 75 65 71.42 65 67C65 62.58 61.42 59 57 59" stroke="white" stroke-width="1.5" stroke-linecap="round" stroke-linejoin="round"/>
<path d="M37.888 131.624C37.888 126.632 41.704 123.104 46.408 123.104C49.888 123.104 52.888 124.856 54.16 128.12H50.872C49.984 126.344 48.4 125.504 46.408 125.504C43.096 125.504 40.696 127.856 40.696 131.624C40.696 135.392 43.096 137.768 46.408 137.768C48.4 137.768 49.984 136.928 50.872 135.152H54.16C52.888 138.416 49.888 140.144 46.408 140.144C41.704 140.144 37.888 136.64 37.888 131.624ZM57.3625 140V126.776H60.0985V140H57.3625ZM58.7545 125.024C57.7705 125.024 57.0025 124.256 57.0025 123.272C57.0025 122.288 57.7705 121.52 58.7545 121.52C59.7145 121.52 60.4825 122.288 60.4825 123.272C60.4825 124.256 59.7145 125.024 58.7545 125.024ZM73.0746 140V132.608C73.0746 130.184 71.7546 128.936 69.7626 128.936C67.7466 128.936 66.4266 130.184 66.4266 132.608V140H63.6906V126.776H66.4266V128.288C67.3146 127.208 68.7786 126.56 70.3626 126.56C73.4586 126.56 75.7866 128.504 75.7866 132.2V140H73.0746ZM84.8446 128.864C82.9966 128.864 81.5086 130.112 81.2206 132.2H88.5406C88.4926 130.16 86.8846 128.864 84.8446 128.864ZM91.0366 136.064C90.2926 138.368 88.2046 140.216 84.9646 140.216C81.1726 140.216 78.3646 137.528 78.3646 133.376C78.3646 129.224 81.0526 126.56 84.9646 126.56C88.7326 126.56 91.3966 129.176 91.3966 133.064C91.3966 133.52 91.3726 133.952 91.3006 134.408H81.1966C81.3886 136.592 82.9486 137.912 84.9646 137.912C86.6446 137.912 87.5806 137.096 88.0846 136.064H91.0366ZM112.833 140V132.608C112.833 130.184 111.513 128.936 109.521 128.936C107.505 128.936 106.185 130.184 106.185 132.608V140H103.473V132.608C103.473 130.184 102.153 128.936 100.161 128.936C98.1451 128.936 96.8251 130.184 96.8251 132.608V140H94.0891V126.776H96.8251V128.288C97.7131 127.208 99.1531 126.56 100.737 126.56C102.825 126.56 104.577 127.448 105.489 129.176C106.305 127.568 108.177 126.56 110.097 126.56C113.193 126.56 115.545 128.504 115.545 132.2V140H112.833ZM118.115 133.328C118.115 129.248 120.875 126.56 124.355 126.56C126.587 126.56 128.123 127.616 128.939 128.696V126.776H131.699V140H128.939V138.032C128.099 139.16 126.515 140.216 124.307 140.216C120.875 140.216 118.115 137.408 118.115 133.328ZM128.939 133.376C128.939 130.544 126.995 128.936 124.931 128.936C122.891 128.936 120.923 130.472 120.923 133.328C120.923 136.184 122.891 137.84 124.931 137.84C126.995 137.84 128.939 136.232 128.939 133.376ZM147.095 128.864C145.247 128.864 143.759 130.112 143.471 132.2H150.791C150.743 130.16 149.135 128.864 147.095 128.864ZM153.287 136.064C152.543 138.368 150.455 140.216 147.215 140.216C143.423 140.216 140.615 137.528 140.615 133.376C140.615 129.224 143.303 126.56 147.215 126.56C150.983 126.56 153.647 129.176 153.647 133.064C153.647 133.52 153.623 133.952 153.551 134.408H143.447C143.639 136.592 145.199 137.912 147.215 137.912C148.895 137.912 149.831 137.096 150.335 136.064H153.287ZM48.016 159.296V161.528H41.536V166.424H47.296V168.656H41.536V173.768H48.016V176H38.8V159.296H48.016ZM60.7699 176V168.608C60.7699 166.184 59.4499 164.936 57.4579 164.936C55.4419 164.936 54.1219 166.184 54.1219 168.608V176H51.3859V162.776H54.1219V164.288C55.0099 163.208 56.4739 162.56 58.0579 162.56C61.1539 162.56 63.4819 164.504 63.4819 168.2V176H60.7699ZM67.4039 172.328V165.008H65.8439V162.776H67.4039V159.488H70.1639V162.776H73.3799V165.008H70.1639V172.328C70.1639 173.312 70.5479 173.72 71.6999 173.72H73.3799V176H71.2199C68.8679 176 67.4039 175.016 67.4039 172.328ZM78.6376 169.04V176H75.9016V162.776H78.6376V164.696C79.4056 163.376 80.7256 162.56 82.5976 162.56V165.392H81.9016C79.8856 165.392 78.6376 166.232 78.6376 169.04ZM90.6805 164.864C88.8325 164.864 87.3445 166.112 87.0565 168.2H94.3765C94.3285 166.16 92.7205 164.864 90.6805 164.864ZM96.8725 172.064C96.1285 174.368 94.0405 176.216 90.8005 176.216C87.0085 176.216 84.2005 173.528 84.2005 169.376C84.2005 165.224 86.8885 162.56 90.8005 162.56C94.5685 162.56 97.2325 165.176 97.2325 169.064C97.2325 169.52 97.2085 169.952 97.1365 170.408H87.0325C87.2245 172.592 88.7845 173.912 90.8005 173.912C92.4805 173.912 93.4165 173.096 93.9205 172.064H96.8725ZM100.357 172.328V165.008H98.797V162.776H100.357V159.488H103.117V162.776H106.333V165.008H103.117V172.328C103.117 173.312 103.501 173.72 104.653 173.72H106.333V176H104.173C101.821 176 100.357 175.016 100.357 172.328ZM114.423 164.864C112.575 164.864 111.087 166.112 110.799 168.2H118.119C118.071 166.16 116.463 164.864 114.423 164.864ZM120.615 172.064C119.871 174.368 117.783 176.216 114.543 176.216C110.751 176.216 107.943 173.528 107.943 169.376C107.943 165.224 110.631 162.56 114.543 162.56C118.311 162.56 120.975 165.176 120.975 169.064C120.975 169.52 120.951 169.952 120.879 170.408H110.775C110.967 172.592 112.527 173.912 114.543 173.912C116.223 173.912 117.159 173.096 117.663 172.064H120.615ZM133.051 176V168.608C133.051 166.184 131.731 164.936 129.739 164.936C127.723 164.936 126.403 166.184 126.403 168.608V176H123.667V162.776H126.403V164.288C127.291 163.208 128.755 162.56 130.339 162.56C133.435 162.56 135.763 164.504 135.763 168.2V176H133.051ZM139.253 176V162.776H141.989V176H139.253ZM140.645 161.024C139.661 161.024 138.893 160.256 138.893 159.272C138.893 158.288 139.661 157.52 140.645 157.52C141.605 157.52 142.373 158.288 142.373 159.272C142.373 160.256 141.605 161.024 140.645 161.024ZM164.325 176V168.608C164.325 166.184 163.005 164.936 161.013 164.936C158.997 164.936 157.677 166.184 157.677 168.608V176H154.965V168.608C154.965 166.184 153.645 164.936 151.653 164.936C149.637 164.936 148.317 166.184 148.317 168.608V176H145.581V162.776H148.317V164.288C149.205 163.208 150.645 162.56 152.229 162.56C154.317 162.56 156.069 163.448 156.981 165.176C157.797 163.568 159.669 162.56 161.589 162.56C164.685 162.56 167.037 164.504 167.037 168.2V176H164.325ZM176.087 164.864C174.239 164.864 172.751 166.112 172.463 168.2H179.783C179.735 166.16 178.127 164.864 176.087 164.864ZM182.279 172.064C181.535 174.368 179.447 176.216 176.207 176.216C172.415 176.216 169.607 173.528 169.607 169.376C169.607 165.224 172.295 162.56 176.207 162.56C179.975 162.56 182.639 165.176 182.639 169.064C182.639 169.52 182.615 169.952 182.543 170.408H172.439C172.631 172.592 174.191 173.912 176.207 173.912C177.887 173.912 178.823 173.096 179.327 172.064H182.279ZM194.715 176V168.608C194.715 166.184 193.395 164.936 191.403 164.936C189.387 164.936 188.067 166.184 188.067 168.608V176H185.331V162.776H188.067V164.288C188.955 163.208 190.419 162.56 192.003 162.56C195.099 162.56 197.427 164.504 197.427 168.2V176H194.715ZM201.349 172.328V165.008H199.789V162.776H201.349V159.488H204.109V162.776H207.325V165.008H204.109V172.328C204.109 173.312 204.493 173.72 205.645 173.72H207.325V176H205.165C202.813 176 201.349 175.016 201.349 172.328ZM222.447 169.376C222.447 173.528 219.375 176.216 215.583 176.216C211.815 176.216 208.959 173.528 208.959 169.376C208.959 165.224 211.935 162.56 215.703 162.56C219.471 162.56 222.447 165.224 222.447 169.376ZM211.743 169.376C211.743 172.376 213.519 173.84 215.583 173.84C217.623 173.84 219.639 172.376 219.639 169.376C219.639 166.376 217.695 164.936 215.655 164.936C213.591 164.936 211.743 166.376 211.743 169.376Z" fill="white"/>
<path d="M33.752 257.448L33.56 254.264H34.936L34.76 257.448H33.752ZM35.912 257.448L35.72 254.264H37.096L36.92 257.448H35.912ZM42.3759 255.848C46.0399 255.848 48.2959 257.992 48.2959 261.448C48.2959 264.904 46.0399 267 42.3759 267H38.9039V255.848H42.3759ZM40.3599 265.8H42.3759C45.2879 265.8 46.8079 264.168 46.8079 261.448C46.8079 258.728 45.2879 257.032 42.3759 257.032H40.3599V265.8ZM53.9444 259.32C52.5204 259.32 51.3364 260.264 51.1764 261.976H56.7124C56.7284 260.264 55.4484 259.32 53.9444 259.32ZM58.0404 264.296C57.5924 265.896 56.1844 267.144 54.0084 267.144C51.5124 267.144 49.6724 265.384 49.6724 262.6C49.6724 259.832 51.4484 258.088 54.0084 258.088C56.5524 258.088 58.2164 259.88 58.2164 262.28C58.2164 262.6 58.2004 262.856 58.1684 263.16H51.1604C51.2724 264.936 52.5204 265.912 54.0084 265.912C55.3204 265.912 56.1524 265.24 56.4724 264.296H58.0404ZM66.4423 264.616C66.4423 266.056 65.1783 267.144 63.2423 267.144C61.1943 267.144 59.7543 266.024 59.6583 264.424H61.1623C61.2423 265.272 61.9943 265.912 63.2263 265.912C64.3783 265.912 65.0183 265.336 65.0183 264.616C65.0183 262.664 59.8343 263.8 59.8343 260.536C59.8343 259.192 61.0983 258.088 63.0503 258.088C64.9863 258.088 66.2663 259.128 66.3623 260.84H64.9063C64.8423 259.96 64.1703 259.32 63.0023 259.32C61.9303 259.32 61.2903 259.832 61.2903 260.536C61.2903 262.616 66.3783 261.48 66.4423 264.616ZM67.9536 262.6C67.9536 259.848 69.7296 258.088 72.2256 258.088C74.4016 258.088 75.8256 259.208 76.2736 261.048H74.7056C74.4016 259.992 73.5216 259.32 72.2256 259.32C70.6256 259.32 69.4416 260.456 69.4416 262.6C69.4416 264.776 70.6256 265.912 72.2256 265.912C73.5216 265.912 74.3856 265.288 74.7056 264.184H76.2736C75.8256 265.928 74.4016 267.144 72.2256 267.144C69.7296 267.144 67.9536 265.384 67.9536 262.6ZM85.9924 258.232V267H84.5364V265.704C83.9764 266.616 82.9044 267.128 81.7364 267.128C79.7204 267.128 78.1364 265.88 78.1364 263.368V258.232H79.5764V263.176C79.5764 264.952 80.5524 265.864 82.0244 265.864C83.5284 265.864 84.5364 264.936 84.5364 263.048V258.232H85.9924ZM89.9068 259.864C90.4668 258.888 91.6348 258.088 93.1868 258.088C95.5548 258.088 97.3468 259.848 97.3468 262.584C97.3468 265.304 95.5388 267.144 93.1868 267.144C91.5868 267.144 90.4508 266.344 89.9068 265.384V267H88.4508V255.16H89.9068V259.864ZM95.8588 262.584C95.8588 260.52 94.4988 259.352 92.8828 259.352C91.2988 259.352 89.9068 260.568 89.9068 262.6C89.9068 264.664 91.2988 265.864 92.8828 265.864C94.4988 265.864 95.8588 264.648 95.8588 262.584ZM100.719 262.232V267H99.2633V258.232H100.719V259.656C101.215 258.68 102.159 258.072 103.551 258.072V259.576H103.167C101.775 259.576 100.719 260.2 100.719 262.232ZM104.688 262.584C104.688 259.848 106.496 258.088 108.848 258.088C110.48 258.088 111.6 258.92 112.112 259.832V258.232H113.584V267H112.112V265.368C111.584 266.312 110.448 267.144 108.832 267.144C106.496 267.144 104.688 265.304 104.688 262.584ZM112.112 262.6C112.112 260.568 110.736 259.352 109.136 259.352C107.536 259.352 106.176 260.52 106.176 262.584C106.176 264.648 107.536 265.864 109.136 265.864C110.736 265.864 112.112 264.664 112.112 262.6ZM120.582 267V259.432H119.446V258.232H120.582V257.608C120.582 255.656 121.542 254.776 123.782 254.776V255.992C122.47 255.992 122.038 256.472 122.038 257.608V258.232H123.878V259.432H122.038V267H120.582ZM125.032 262.584C125.032 259.848 126.84 258.088 129.192 258.088C130.824 258.088 131.944 258.92 132.456 259.832V258.232H133.928V267H132.456V265.368C131.928 266.312 130.792 267.144 129.176 267.144C126.84 267.144 125.032 265.304 125.032 262.584ZM132.456 262.6C132.456 260.568 131.08 259.352 129.48 259.352C127.88 259.352 126.52 260.52 126.52 262.584C126.52 264.648 127.88 265.864 129.48 265.864C131.08 265.864 132.456 264.664 132.456 262.6ZM136.708 264.6V259.432H135.572V258.232H136.708V256.024H138.164V258.232H140.452V259.432H138.164V264.6C138.164 265.464 138.484 265.768 139.38 265.768H140.452V267H139.14C137.588 267 136.708 266.36 136.708 264.6ZM150.536 262.6C150.536 265.384 148.536 267.144 146.04 267.144C143.56 267.144 141.672 265.384 141.672 262.6C141.672 259.832 143.624 258.088 146.104 258.088C148.6 258.088 150.536 259.832 150.536 262.6ZM143.16 262.6C143.16 264.824 144.52 265.864 146.04 265.864C147.56 265.864 149.048 264.824 149.048 262.6C149.048 260.392 147.592 259.352 146.088 259.352C144.552 259.352 143.16 260.392 143.16 262.6ZM158.755 264.616C158.755 266.056 157.491 267.144 155.555 267.144C153.507 267.144 152.067 266.024 151.971 264.424H153.475C153.555 265.272 154.307 265.912 155.539 265.912C156.691 265.912 157.331 265.336 157.331 264.616C157.331 262.664 152.147 263.8 152.147 260.536C152.147 259.192 153.411 258.088 155.363 258.088C157.299 258.088 158.579 259.128 158.675 260.84H157.219C157.155 259.96 156.483 259.32 155.315 259.32C154.243 259.32 153.603 259.832 153.603 260.536C153.603 262.616 158.691 261.48 158.755 264.616ZM171.38 264.616C171.38 266.056 170.116 267.144 168.18 267.144C166.132 267.144 164.692 266.024 164.596 264.424H166.1C166.18 265.272 166.932 265.912 168.164 265.912C169.316 265.912 169.956 265.336 169.956 264.616C169.956 262.664 164.772 263.8 164.772 260.536C164.772 259.192 166.036 258.088 167.988 258.088C169.924 258.088 171.204 259.128 171.3 260.84H169.844C169.78 259.96 169.108 259.32 167.94 259.32C166.868 259.32 166.228 259.832 166.228 260.536C166.228 262.616 171.316 261.48 171.38 264.616ZM181.755 262.6C181.755 265.384 179.755 267.144 177.259 267.144C174.779 267.144 172.891 265.384 172.891 262.6C172.891 259.832 174.843 258.088 177.323 258.088C179.819 258.088 181.755 259.832 181.755 262.6ZM174.379 262.6C174.379 264.824 175.739 265.864 177.259 265.864C178.779 265.864 180.267 264.824 180.267 262.6C180.267 260.392 178.811 259.352 177.307 259.352C175.771 259.352 174.379 260.392 174.379 262.6ZM185.126 259.864C185.686 258.888 186.854 258.088 188.406 258.088C190.774 258.088 192.566 259.848 192.566 262.584C192.566 265.304 190.758 267.144 188.406 267.144C186.806 267.144 185.67 266.344 185.126 265.384V267H183.67V255.16H185.126V259.864ZM191.078 262.584C191.078 260.52 189.718 259.352 188.102 259.352C186.518 259.352 185.126 260.568 185.126 262.6C185.126 264.664 186.518 265.864 188.102 265.864C189.718 265.864 191.078 264.648 191.078 262.584ZM195.938 262.232V267H194.482V258.232H195.938V259.656C196.434 258.68 197.378 258.072 198.77 258.072V259.576H198.386C196.994 259.576 195.938 260.2 195.938 262.232ZM204.179 259.32C202.755 259.32 201.571 260.264 201.411 261.976H206.947C206.963 260.264 205.683 259.32 204.179 259.32ZM208.275 264.296C207.827 265.896 206.419 267.144 204.243 267.144C201.747 267.144 199.907 265.384 199.907 262.6C199.907 259.832 201.683 258.088 204.243 258.088C206.787 258.088 208.451 259.88 208.451 262.28C208.451 262.6 208.435 262.856 208.403 263.16H201.395C201.507 264.936 202.755 265.912 204.243 265.912C205.555 265.912 206.387 265.24 206.707 264.296H208.275ZM34.504 291V283.432H33.368V282.232H34.504V281.608C34.504 279.656 35.464 278.776 37.704 278.776V279.992C36.392 279.992 35.96 280.472 35.96 281.608V282.232H37.8V283.432H35.96V291H34.504ZM39.4976 291V282.232H40.9536V291H39.4976ZM40.2496 280.808C39.6896 280.808 39.2576 280.376 39.2576 279.816C39.2576 279.256 39.6896 278.824 40.2496 278.824C40.7776 278.824 41.2096 279.256 41.2096 279.816C41.2096 280.376 40.7776 280.808 40.2496 280.808ZM43.4351 291V279.16H44.8911V291H43.4351ZM60.0286 291V286.04C60.0286 284.248 59.0686 283.336 57.6286 283.336C56.1566 283.336 55.1486 284.28 55.1486 286.168V291H53.7086V286.04C53.7086 284.248 52.7486 283.336 51.3086 283.336C49.8366 283.336 48.8286 284.28 48.8286 286.168V291H47.3726V282.232H48.8286V283.496C49.4046 282.568 50.4446 282.072 51.5966 282.072C53.0366 282.072 54.2366 282.712 54.8126 284.024C55.3246 282.76 56.5726 282.072 57.9166 282.072C59.9166 282.072 61.4686 283.32 61.4686 285.832V291H60.0286ZM67.585 283.32C66.161 283.32 64.977 284.264 64.817 285.976H70.353C70.369 284.264 69.089 283.32 67.585 283.32ZM71.681 288.296C71.233 289.896 69.825 291.144 67.649 291.144C65.153 291.144 63.313 289.384 63.313 286.6C63.313 283.832 65.089 282.088 67.649 282.088C70.193 282.088 71.857 283.88 71.857 286.28C71.857 286.6 71.841 286.856 71.809 287.16H64.801C64.913 288.936 66.161 289.912 67.649 289.912C68.961 289.912 69.793 289.24 70.113 288.296H71.681ZM80.0829 288.616C80.0829 290.056 78.8189 291.144 76.8829 291.144C74.8349 291.144 73.3949 290.024 73.2989 288.424H74.8029C74.8829 289.272 75.6349 289.912 76.8669 289.912C78.0189 289.912 78.6589 289.336 78.6589 288.616C78.6589 286.664 73.4749 287.8 73.4749 284.536C73.4749 283.192 74.7389 282.088 76.6909 282.088C78.6269 282.088 79.9069 283.128 80.0029 284.84H78.5469C78.4829 283.96 77.8109 283.32 76.6429 283.32C75.5709 283.32 74.9309 283.832 74.9309 284.536C74.9309 286.616 80.0189 285.48 80.0829 288.616ZM90.1319 283.32C88.7079 283.32 87.5239 284.264 87.3639 285.976H92.8999C92.9159 284.264 91.6359 283.32 90.1319 283.32ZM94.2279 288.296C93.7799 289.896 92.3719 291.144 90.1959 291.144C87.6999 291.144 85.8599 289.384 85.8599 286.6C85.8599 283.832 87.6359 282.088 90.1959 282.088C92.7399 282.088 94.4039 283.88 94.4039 286.28C94.4039 286.6 94.3879 286.856 94.3559 287.16H87.3479C87.4599 288.936 88.7079 289.912 90.1959 289.912C91.5079 289.912 92.3399 289.24 92.6599 288.296H94.2279ZM100.047 286.584C100.047 283.848 101.855 282.088 104.207 282.088C105.839 282.088 106.959 282.92 107.471 283.832V282.232H108.943V291H107.471V289.368C106.943 290.312 105.807 291.144 104.191 291.144C101.855 291.144 100.047 289.304 100.047 286.584ZM107.471 286.6C107.471 284.568 106.095 283.352 104.495 283.352C102.895 283.352 101.535 284.52 101.535 286.584C101.535 288.648 102.895 289.864 104.495 289.864C106.095 289.864 107.471 288.664 107.471 286.6ZM111.724 288.6V283.432H110.588V282.232H111.724V280.024H113.18V282.232H115.468V283.432H113.18V288.6C113.18 289.464 113.5 289.768 114.396 289.768H115.468V291H114.156C112.604 291 111.724 290.36 111.724 288.6ZM125.552 286.6C125.552 289.384 123.552 291.144 121.056 291.144C118.576 291.144 116.688 289.384 116.688 286.6C116.688 283.832 118.64 282.088 121.12 282.088C123.616 282.088 125.552 283.832 125.552 286.6ZM118.176 286.6C118.176 288.824 119.536 289.864 121.056 289.864C122.576 289.864 124.064 288.824 124.064 286.6C124.064 284.392 122.608 283.352 121.104 283.352C119.568 283.352 118.176 284.392 118.176 286.6ZM128.922 286.232V291H127.466V282.232H128.922V283.656C129.418 282.68 130.362 282.072 131.754 282.072V283.576H131.37C129.978 283.576 128.922 284.2 128.922 286.232ZM137.163 283.32C135.739 283.32 134.555 284.264 134.395 285.976H139.931C139.947 284.264 138.667 283.32 137.163 283.32ZM141.259 288.296C140.811 289.896 139.403 291.144 137.227 291.144C134.731 291.144 132.891 289.384 132.891 286.6C132.891 283.832 134.667 282.088 137.227 282.088C139.771 282.088 141.435 283.88 141.435 286.28C141.435 286.6 141.419 286.856 141.387 287.16H134.379C134.491 288.936 135.739 289.912 137.227 289.912C138.539 289.912 139.371 289.24 139.691 288.296H141.259ZM149.661 288.616C149.661 290.056 148.397 291.144 146.461 291.144C144.413 291.144 142.973 290.024 142.877 288.424H144.381C144.461 289.272 145.213 289.912 146.445 289.912C147.597 289.912 148.237 289.336 148.237 288.616C148.237 286.664 143.053 287.8 143.053 284.536C143.053 283.192 144.317 282.088 146.269 282.088C148.205 282.088 149.485 283.128 149.581 284.84H148.125C148.061 283.96 147.389 283.32 146.221 283.32C145.149 283.32 144.509 283.832 144.509 284.536C144.509 286.616 149.597 285.48 149.661 288.616ZM153.14 290.104C153.14 290.664 152.708 291.096 152.18 291.096C151.62 291.096 151.188 290.664 151.188 290.104C151.188 289.544 151.62 289.112 152.18 289.112C152.708 289.112 153.14 289.544 153.14 290.104ZM154.596 281.448L154.404 278.264H155.78L155.604 281.448H154.596ZM156.756 281.448L156.564 278.264H157.94L157.764 281.448H156.756Z" fill="white" fill-opacity="0.7"/>
</svg>
