<svg width="285" height="337" viewBox="0 0 285 337" fill="none" xmlns="http://www.w3.org/2000/svg">
<rect x="1" y="1" width="283" height="335" fill="#24273F" stroke="#485082" stroke-width="2"/>
<path d="M37.554 52.269C34.702 56.11 33 60.848 33 66C33 78.696 43.304 89 56 89" stroke="white" stroke-width="3" stroke-linecap="round" stroke-linejoin="round"/>
<path d="M78.9996 66C78.9996 53.304 68.6956 43 55.9996 43C52.5036 43 49.2146 43.782 46.2476 45.162" stroke="white" stroke-width="3" stroke-linecap="round" stroke-linejoin="round"/>
<path d="M67.2469 80.581V80.0089C67.2469 78.1562 68.3912 77.1754 69.5355 76.3853C70.6526 75.6224 71.7694 74.6416 71.7694 72.8434C71.7694 70.3369 69.7535 68.3206 67.2469 68.3206C64.7404 68.3206 62.7242 70.3369 62.7242 72.8434" stroke="white" stroke-width="3" stroke-linecap="round" stroke-linejoin="round"/>
<path d="M67.2346 87.0926H67.2591" stroke="white" stroke-width="3" stroke-linecap="round" stroke-linejoin="round"/>
<path d="M37.888 137.624C37.888 132.632 41.704 129.104 46.408 129.104C49.888 129.104 52.888 130.856 54.16 134.12H50.872C49.984 132.344 48.4 131.504 46.408 131.504C43.096 131.504 40.696 133.856 40.696 137.624C40.696 141.392 43.096 143.768 46.408 143.768C48.4 143.768 49.984 142.928 50.872 141.152H54.16C52.888 144.416 49.888 146.144 46.408 146.144C41.704 146.144 37.888 142.64 37.888 137.624ZM57.3625 146V132.776H60.0985V146H57.3625ZM58.7545 131.024C57.7705 131.024 57.0025 130.256 57.0025 129.272C57.0025 128.288 57.7705 127.52 58.7545 127.52C59.7145 127.52 60.4825 128.288 60.4825 129.272C60.4825 130.256 59.7145 131.024 58.7545 131.024ZM69.2586 134.864C67.4106 134.864 65.9226 136.112 65.6346 138.2H72.9546C72.9066 136.16 71.2986 134.864 69.2586 134.864ZM75.4506 142.064C74.7066 144.368 72.6186 146.216 69.3786 146.216C65.5866 146.216 62.7786 143.528 62.7786 139.376C62.7786 135.224 65.4666 132.56 69.3786 132.56C73.1466 132.56 75.8106 135.176 75.8106 139.064C75.8106 139.52 75.7866 139.952 75.7146 140.408H65.6106C65.8026 142.592 67.3626 143.912 69.3786 143.912C71.0586 143.912 71.9946 143.096 72.4986 142.064H75.4506ZM72.7386 129.704V131.84L69.3066 129.776L65.8746 131.84V129.704L69.3066 127.712L72.7386 129.704ZM87.8871 146V138.608C87.8871 136.184 86.5671 134.936 84.5751 134.936C82.5591 134.936 81.2391 136.184 81.2391 138.608V146H78.5031V132.776H81.2391V134.288C82.1271 133.208 83.5911 132.56 85.1751 132.56C88.2711 132.56 90.5991 134.504 90.5991 138.2V146H87.8871ZM93.1771 139.376C93.1771 135.248 95.8651 132.56 99.6571 132.56C102.897 132.56 105.009 134.168 105.753 136.952H102.801C102.345 135.68 101.289 134.864 99.6571 134.864C97.4491 134.864 95.9851 136.496 95.9851 139.376C95.9851 142.28 97.4491 143.912 99.6571 143.912C101.289 143.912 102.297 143.192 102.801 141.824H105.753C105.009 144.416 102.897 146.216 99.6571 146.216C95.8651 146.216 93.1771 143.528 93.1771 139.376ZM108.48 146V132.776H111.216V146H108.48ZM109.872 131.024C108.888 131.024 108.12 130.256 108.12 129.272C108.12 128.288 108.888 127.52 109.872 127.52C110.832 127.52 111.6 128.288 111.6 129.272C111.6 130.256 110.832 131.024 109.872 131.024ZM113.896 139.328C113.896 135.248 116.656 132.56 120.136 132.56C122.368 132.56 123.904 133.616 124.72 134.696V132.776H127.48V146H124.72V144.032C123.88 145.16 122.296 146.216 120.088 146.216C116.656 146.216 113.896 143.408 113.896 139.328ZM124.72 139.376C124.72 136.544 122.776 134.936 120.712 134.936C118.672 134.936 116.704 136.472 116.704 139.328C116.704 142.184 118.672 143.84 120.712 143.84C122.776 143.84 124.72 142.232 124.72 139.376ZM142.876 134.864C141.028 134.864 139.54 136.112 139.252 138.2H146.572C146.524 136.16 144.916 134.864 142.876 134.864ZM149.068 142.064C148.324 144.368 146.236 146.216 142.996 146.216C139.204 146.216 136.396 143.528 136.396 139.376C136.396 135.224 139.084 132.56 142.996 132.56C146.764 132.56 149.428 135.176 149.428 139.064C149.428 139.52 149.404 139.952 149.332 140.408H139.228C139.42 142.592 140.98 143.912 142.996 143.912C144.676 143.912 145.612 143.096 146.116 142.064H149.068ZM37.936 167.552V165.32H49.576V167.552H45.136V182H42.4V167.552H37.936ZM57.9149 170.864C56.0669 170.864 54.5789 172.112 54.2909 174.2H61.6109C61.5629 172.16 59.9549 170.864 57.9149 170.864ZM64.1069 178.064C63.3629 180.368 61.2749 182.216 58.0349 182.216C54.2429 182.216 51.4349 179.528 51.4349 175.376C51.4349 171.224 54.1229 168.56 58.0349 168.56C61.8029 168.56 64.4669 171.176 64.4669 175.064C64.4669 175.52 64.4429 175.952 64.3709 176.408H54.2669C54.4589 178.592 56.0189 179.912 58.0349 179.912C59.7149 179.912 60.6509 179.096 61.1549 178.064H64.1069ZM66.2474 175.376C66.2474 171.248 68.9354 168.56 72.7274 168.56C75.9674 168.56 78.0794 170.168 78.8234 172.952H75.8714C75.4154 171.68 74.3594 170.864 72.7274 170.864C70.5194 170.864 69.0554 172.496 69.0554 175.376C69.0554 178.28 70.5194 179.912 72.7274 179.912C74.3594 179.912 75.3674 179.192 75.8714 177.824H78.8234C78.0794 180.416 75.9674 182.216 72.7274 182.216C68.9354 182.216 66.2474 179.528 66.2474 175.376ZM90.934 182V174.608C90.934 172.184 89.614 170.936 87.622 170.936C85.606 170.936 84.286 172.184 84.286 174.608V182H81.55V168.776H84.286V170.288C85.174 169.208 86.638 168.56 88.222 168.56C91.318 168.56 93.646 170.504 93.646 174.2V182H90.934ZM109.736 175.376C109.736 179.528 106.664 182.216 102.872 182.216C99.1039 182.216 96.2479 179.528 96.2479 175.376C96.2479 171.224 99.2239 168.56 102.992 168.56C106.76 168.56 109.736 171.224 109.736 175.376ZM99.0319 175.376C99.0319 178.376 100.808 179.84 102.872 179.84C104.912 179.84 106.928 178.376 106.928 175.376C106.928 172.376 104.984 170.936 102.944 170.936C100.88 170.936 99.0319 172.376 99.0319 175.376ZM112.441 182V164.24H115.177V182H112.441ZM131.369 175.376C131.369 179.528 128.297 182.216 124.505 182.216C120.737 182.216 117.881 179.528 117.881 175.376C117.881 171.224 120.857 168.56 124.625 168.56C128.393 168.56 131.369 171.224 131.369 175.376ZM120.665 175.376C120.665 178.376 122.441 179.84 124.505 179.84C126.545 179.84 128.561 178.376 128.561 175.376C128.561 172.376 126.617 170.936 124.577 170.936C122.513 170.936 120.665 172.376 120.665 175.376ZM133.161 175.328C133.161 171.248 135.921 168.56 139.401 168.56C141.561 168.56 143.169 169.568 143.985 170.696V168.776H146.745V182.216C146.745 185.816 144.417 188.528 140.289 188.528C136.761 188.528 134.145 186.776 133.809 183.848H136.521C136.929 185.216 138.393 186.152 140.289 186.152C142.401 186.152 143.985 184.856 143.985 182.216V180.008C143.145 181.136 141.561 182.216 139.401 182.216C135.921 182.216 133.161 179.408 133.161 175.328ZM143.985 175.376C143.985 172.544 142.041 170.936 139.977 170.936C137.937 170.936 135.969 172.472 135.969 175.328C135.969 178.184 137.937 179.84 139.977 179.84C142.041 179.84 143.985 178.232 143.985 175.376ZM150.339 182V168.776H153.075V182H150.339ZM151.731 167.024C150.747 167.024 149.979 166.256 149.979 165.272C149.979 164.288 150.747 163.52 151.731 163.52C152.691 163.52 153.459 164.288 153.459 165.272C153.459 166.256 152.691 167.024 151.731 167.024ZM155.755 175.328C155.755 171.248 158.515 168.56 161.995 168.56C164.227 168.56 165.763 169.616 166.579 170.696V168.776H169.339V182H166.579V180.032C165.739 181.16 164.155 182.216 161.947 182.216C158.515 182.216 155.755 179.408 155.755 175.328ZM166.579 175.376C166.579 172.544 164.635 170.936 162.571 170.936C160.531 170.936 158.563 172.472 158.563 175.328C158.563 178.184 160.531 179.84 162.571 179.84C164.635 179.84 166.579 178.232 166.579 175.376Z" fill="white"/>
<path d="M33.752 258.448L33.56 255.264H34.936L34.76 258.448H33.752ZM35.912 258.448L35.72 255.264H37.096L36.92 258.448H35.912ZM38.3599 262.416C38.3599 259.072 40.8079 256.704 43.9279 256.704C46.3439 256.704 48.2639 257.92 49.0959 260.08H47.3519C46.7439 258.736 45.5599 257.984 43.9279 257.984C41.5919 257.984 39.8479 259.68 39.8479 262.416C39.8479 265.136 41.5919 266.832 43.9279 266.832C45.5599 266.832 46.7439 266.08 47.3519 264.752H49.0959C48.2639 266.896 46.3439 268.096 43.9279 268.096C40.8079 268.096 38.3599 265.76 38.3599 262.416ZM59.5833 263.6C59.5833 266.384 57.5833 268.144 55.0873 268.144C52.6073 268.144 50.7193 266.384 50.7193 263.6C50.7193 260.832 52.6713 259.088 55.1513 259.088C57.6473 259.088 59.5833 260.832 59.5833 263.6ZM52.2073 263.6C52.2073 265.824 53.5673 266.864 55.0873 266.864C56.6073 266.864 58.0953 265.824 58.0953 263.6C58.0953 261.392 56.6393 260.352 55.1353 260.352C53.5993 260.352 52.2073 261.392 52.2073 263.6ZM67.9136 268V263.04C67.9136 261.248 66.9376 260.336 65.4656 260.336C63.9776 260.336 62.9536 261.264 62.9536 263.152V268H61.4976V259.232H62.9536V260.48C63.5296 259.568 64.5856 259.072 65.7696 259.072C67.8016 259.072 69.3536 260.32 69.3536 262.832V268H67.9136ZM71.732 268V256.16H73.188V260.496C73.764 259.568 74.852 259.072 76.084 259.072C78.036 259.072 79.588 260.32 79.588 262.832V268H78.148V263.04C78.148 261.248 77.172 260.336 75.7 260.336C74.212 260.336 73.188 261.264 73.188 263.152V268H71.732ZM85.6944 260.32C84.2704 260.32 83.0864 261.264 82.9264 262.976H88.4624C88.4784 261.264 87.1984 260.32 85.6944 260.32ZM89.7904 265.296C89.3424 266.896 87.9344 268.144 85.7584 268.144C83.2624 268.144 81.4224 266.384 81.4224 263.6C81.4224 260.832 83.1984 259.088 85.7584 259.088C88.3024 259.088 89.9664 260.88 89.9664 263.28C89.9664 263.6 89.9504 263.856 89.9184 264.16H82.9104C83.0224 265.936 84.2704 266.912 85.7584 266.912C87.0704 266.912 87.9024 266.24 88.2224 265.296H89.7904ZM91.3443 263.6C91.3443 260.848 93.1203 259.088 95.6163 259.088C97.7923 259.088 99.2163 260.208 99.6643 262.048H98.0963C97.7923 260.992 96.9123 260.32 95.6163 260.32C94.0163 260.32 92.8323 261.456 92.8323 263.6C92.8323 265.776 94.0163 266.912 95.6163 266.912C96.9123 266.912 97.7763 266.288 98.0963 265.184H99.6643C99.2483 266.8 97.9843 267.968 96.0643 268.128V268.928C97.2963 268.912 98.1283 269.456 98.1283 270.512C98.1283 271.52 97.3123 272.16 96.1763 272.16H94.3363V271.216H95.8883C96.5763 271.216 96.9123 271.024 96.9123 270.512C96.9123 270.016 96.5763 269.824 95.8883 269.824H95.0883V268.112C92.8803 267.888 91.3443 266.176 91.3443 263.6ZM101.063 263.584C101.063 260.848 102.871 259.088 105.223 259.088C106.855 259.088 107.975 259.92 108.487 260.832V259.232H109.959V268H108.487V266.368C107.959 267.312 106.823 268.144 105.207 268.144C102.871 268.144 101.063 266.304 101.063 263.584ZM108.487 263.6C108.487 261.568 107.111 260.352 105.511 260.352C103.911 260.352 102.551 261.52 102.551 263.584C102.551 265.648 103.911 266.864 105.511 266.864C107.111 266.864 108.487 265.664 108.487 263.6ZM116.685 268V259.232H118.141V268H116.685ZM117.437 257.808C116.877 257.808 116.445 257.376 116.445 256.816C116.445 256.256 116.877 255.824 117.437 255.824C117.965 255.824 118.397 256.256 118.397 256.816C118.397 257.376 117.965 257.808 117.437 257.808ZM127.039 268V263.04C127.039 261.248 126.063 260.336 124.591 260.336C123.103 260.336 122.079 261.264 122.079 263.152V268H120.623V259.232H122.079V260.48C122.655 259.568 123.711 259.072 124.895 259.072C126.927 259.072 128.479 260.32 128.479 262.832V268H127.039ZM139.177 263.6C139.177 266.384 137.177 268.144 134.681 268.144C132.201 268.144 130.313 266.384 130.313 263.6C130.313 260.832 132.265 259.088 134.745 259.088C137.241 259.088 139.177 260.832 139.177 263.6ZM131.801 263.6C131.801 265.824 133.161 266.864 134.681 266.864C136.201 266.864 137.689 265.824 137.689 263.6C137.689 261.392 136.233 260.352 134.729 260.352C133.193 260.352 131.801 261.392 131.801 263.6ZM140.051 259.232H141.619L144.355 266.656L147.075 259.232H148.627L145.187 268H143.491L140.051 259.232ZM149.516 263.584C149.516 260.848 151.324 259.088 153.676 259.088C155.308 259.088 156.428 259.92 156.94 260.832V259.232H158.412V268H156.94V266.368C156.412 267.312 155.276 268.144 153.66 268.144C151.324 268.144 149.516 266.304 149.516 263.584ZM156.94 263.6C156.94 261.568 155.564 260.352 153.964 260.352C152.364 260.352 151.004 261.52 151.004 263.584C151.004 265.648 152.364 266.864 153.964 266.864C155.564 266.864 156.94 265.664 156.94 263.6ZM160.329 263.6C160.329 260.848 162.105 259.088 164.601 259.088C166.777 259.088 168.201 260.208 168.649 262.048H167.081C166.777 260.992 165.897 260.32 164.601 260.32C163.001 260.32 161.817 261.456 161.817 263.6C161.817 265.776 163.001 266.912 164.601 266.912C165.897 266.912 166.761 266.288 167.081 265.184H168.649C168.233 266.8 166.969 267.968 165.049 268.128V268.928C166.281 268.912 167.113 269.456 167.113 270.512C167.113 271.52 166.297 272.16 165.161 272.16H163.321V271.216H164.873C165.561 271.216 165.897 271.024 165.897 270.512C165.897 270.016 165.561 269.824 164.873 269.824H164.073V268.112C161.865 267.888 160.329 266.176 160.329 263.6ZM178.911 263.6C178.911 266.384 176.911 268.144 174.415 268.144C171.935 268.144 170.047 266.384 170.047 263.6C170.047 260.832 171.999 259.088 174.479 259.088C176.975 259.088 178.911 260.832 178.911 263.6ZM171.535 263.6C171.535 265.824 172.895 266.864 174.415 266.864C175.935 266.864 177.423 265.824 177.423 263.6C177.423 261.392 175.967 260.352 174.463 260.352C172.927 260.352 171.535 261.392 171.535 263.6ZM172.143 258.176C172.303 257.072 172.911 256.496 173.743 256.496C174.591 256.496 174.911 257.232 175.567 257.232C175.919 257.232 176.207 257.008 176.271 256.544H177.103C176.975 257.632 176.335 258.208 175.503 258.208C174.639 258.208 174.319 257.472 173.679 257.472C173.327 257.472 173.055 257.696 172.991 258.176H172.143ZM184.554 260.32C183.13 260.32 181.946 261.264 181.786 262.976H187.322C187.338 261.264 186.058 260.32 184.554 260.32ZM188.65 265.296C188.202 266.896 186.794 268.144 184.618 268.144C182.122 268.144 180.282 266.384 180.282 263.6C180.282 260.832 182.058 259.088 184.618 259.088C187.162 259.088 188.826 260.88 188.826 263.28C188.826 263.6 188.81 263.856 188.778 264.16H181.77C181.882 265.936 183.13 266.912 184.618 266.912C185.93 266.912 186.762 266.24 187.082 265.296H188.65ZM197.052 265.616C197.052 267.056 195.788 268.144 193.852 268.144C191.804 268.144 190.364 267.024 190.268 265.424H191.772C191.852 266.272 192.604 266.912 193.836 266.912C194.988 266.912 195.628 266.336 195.628 265.616C195.628 263.664 190.444 264.8 190.444 261.536C190.444 260.192 191.708 259.088 193.66 259.088C195.596 259.088 196.876 260.128 196.972 261.84H195.516C195.452 260.96 194.78 260.32 193.612 260.32C192.54 260.32 191.9 260.832 191.9 261.536C191.9 263.616 196.988 262.48 197.052 265.616ZM33.688 287.6C33.688 284.848 35.464 283.088 37.96 283.088C40.136 283.088 41.56 284.208 42.008 286.048H40.44C40.136 284.992 39.256 284.32 37.96 284.32C36.36 284.32 35.176 285.456 35.176 287.6C35.176 289.776 36.36 290.912 37.96 290.912C39.256 290.912 40.12 290.288 40.44 289.184H42.008C41.56 290.928 40.136 292.144 37.96 292.144C35.464 292.144 33.688 290.384 33.688 287.6ZM43.9508 292V283.232H45.4068V292H43.9508ZM44.7028 281.808C44.1428 281.808 43.7108 281.376 43.7108 280.816C43.7108 280.256 44.1428 279.824 44.7028 279.824C45.2308 279.824 45.6628 280.256 45.6628 280.816C45.6628 281.376 45.2308 281.808 44.7028 281.808ZM51.6163 284.32C50.1923 284.32 49.0082 285.264 48.8483 286.976H54.3843C54.4003 285.264 53.1203 284.32 51.6163 284.32ZM55.7123 289.296C55.2643 290.896 53.8563 292.144 51.6803 292.144C49.1843 292.144 47.3443 290.384 47.3443 287.6C47.3443 284.832 49.1203 283.088 51.6803 283.088C54.2243 283.088 55.8883 284.88 55.8883 287.28C55.8883 287.6 55.8723 287.856 55.8403 288.16H48.8323C48.9443 289.936 50.1923 290.912 51.6803 290.912C52.9923 290.912 53.8243 290.24 54.1443 289.296H55.7123ZM64.2261 292V287.04C64.2261 285.248 63.2501 284.336 61.7781 284.336C60.2901 284.336 59.2661 285.264 59.2661 287.152V292H57.8101V283.232H59.2661V284.48C59.8421 283.568 60.8981 283.072 62.0821 283.072C64.1141 283.072 65.6661 284.32 65.6661 286.832V292H64.2261ZM68.3645 289.6V284.432H67.2285V283.232H68.3645V281.024H69.8205V283.232H72.1085V284.432H69.8205V289.6C69.8205 290.464 70.1405 290.768 71.0365 290.768H72.1085V292H70.7965C69.2445 292 68.3645 291.36 68.3645 289.6ZM73.8726 292V283.232H75.3286V292H73.8726ZM72.7526 281.488L76.1606 279.488V280.752L72.7526 282.576V281.488ZM78.0821 292V284.432H76.9461V283.232H78.0821V282.608C78.0821 280.656 79.0421 279.776 81.2821 279.776V280.992C79.9701 280.992 79.5381 281.472 79.5381 282.608V283.232H81.3781V284.432H79.5381V292H78.0821ZM83.0758 292V283.232H84.5318V292H83.0758ZM83.8278 281.808C83.2678 281.808 82.8358 281.376 82.8358 280.816C82.8358 280.256 83.2678 279.824 83.8278 279.824C84.3558 279.824 84.7878 280.256 84.7878 280.816C84.7878 281.376 84.3558 281.808 83.8278 281.808ZM86.4693 287.6C86.4693 284.848 88.2453 283.088 90.7413 283.088C92.9173 283.088 94.3413 284.208 94.7893 286.048H93.2213C92.9173 284.992 92.0373 284.32 90.7413 284.32C89.1413 284.32 87.9573 285.456 87.9573 287.6C87.9573 289.776 89.1413 290.912 90.7413 290.912C92.0373 290.912 92.9013 290.288 93.2213 289.184H94.7893C94.3413 290.928 92.9173 292.144 90.7413 292.144C88.2453 292.144 86.4693 290.384 86.4693 287.6ZM96.188 287.584C96.188 284.848 97.996 283.088 100.348 283.088C101.98 283.088 103.1 283.92 103.612 284.832V283.232H105.084V292H103.612V290.368C103.084 291.312 101.948 292.144 100.332 292.144C97.996 292.144 96.188 290.304 96.188 287.584ZM103.612 287.6C103.612 285.568 102.236 284.352 100.636 284.352C99.036 284.352 97.676 285.52 97.676 287.584C97.676 289.648 99.036 290.864 100.636 290.864C102.236 290.864 103.612 289.664 103.612 287.6ZM113.849 289.616C113.849 291.056 112.585 292.144 110.649 292.144C108.601 292.144 107.161 291.024 107.065 289.424H108.569C108.649 290.272 109.401 290.912 110.633 290.912C111.785 290.912 112.425 290.336 112.425 289.616C112.425 287.664 107.241 288.8 107.241 285.536C107.241 284.192 108.505 283.088 110.457 283.088C112.393 283.088 113.673 284.128 113.769 285.84H112.313C112.249 284.96 111.577 284.32 110.409 284.32C109.337 284.32 108.697 284.832 108.697 285.536C108.697 287.616 113.785 286.48 113.849 289.616ZM123.898 284.32C122.474 284.32 121.289 285.264 121.13 286.976H126.666C126.682 285.264 125.402 284.32 123.898 284.32ZM127.994 289.296C127.546 290.896 126.138 292.144 123.962 292.144C121.466 292.144 119.626 290.384 119.626 287.6C119.626 284.832 121.402 283.088 123.962 283.088C126.506 283.088 128.17 284.88 128.17 287.28C128.17 287.6 128.154 287.856 128.122 288.16H121.114C121.226 289.936 122.474 290.912 123.962 290.912C125.274 290.912 126.106 290.24 126.426 289.296H127.994ZM134.677 289.6V284.432H133.541V283.232H134.677V281.024H136.133V283.232H138.421V284.432H136.133V289.6C136.133 290.464 136.453 290.768 137.349 290.768H138.421V292H137.109C135.557 292 134.677 291.36 134.677 289.6ZM143.913 284.32C142.489 284.32 141.305 285.264 141.145 286.976H146.681C146.697 285.264 145.417 284.32 143.913 284.32ZM148.009 289.296C147.561 290.896 146.153 292.144 143.977 292.144C141.481 292.144 139.641 290.384 139.641 287.6C139.641 284.832 141.417 283.088 143.977 283.088C146.521 283.088 148.185 284.88 148.185 287.28C148.185 287.6 148.169 287.856 148.137 288.16H141.129C141.241 289.936 142.489 290.912 143.977 290.912C145.289 290.912 146.121 290.24 146.441 289.296H148.009ZM149.563 287.6C149.563 284.848 151.339 283.088 153.835 283.088C156.011 283.088 157.435 284.208 157.883 286.048H156.315C156.011 284.992 155.131 284.32 153.835 284.32C152.235 284.32 151.051 285.456 151.051 287.6C151.051 289.776 152.235 290.912 153.835 290.912C155.131 290.912 155.995 290.288 156.315 289.184H157.883C157.435 290.928 156.011 292.144 153.835 292.144C151.339 292.144 149.563 290.384 149.563 287.6ZM166.242 292V287.04C166.242 285.248 165.266 284.336 163.794 284.336C162.306 284.336 161.282 285.264 161.282 287.152V292H159.826V283.232H161.282V284.48C161.858 283.568 162.914 283.072 164.098 283.072C166.13 283.072 167.682 284.32 167.682 286.832V292H166.242ZM178.38 287.6C178.38 290.384 176.38 292.144 173.884 292.144C171.404 292.144 169.516 290.384 169.516 287.6C169.516 284.832 171.468 283.088 173.948 283.088C176.444 283.088 178.38 284.832 178.38 287.6ZM171.004 287.6C171.004 289.824 172.364 290.864 173.884 290.864C175.404 290.864 176.892 289.824 176.892 287.6C176.892 285.392 175.436 284.352 173.932 284.352C172.396 284.352 171.004 285.392 171.004 287.6ZM180.295 292V280.16H181.751V292H180.295ZM192.552 287.6C192.552 290.384 190.552 292.144 188.056 292.144C185.576 292.144 183.688 290.384 183.688 287.6C183.688 284.832 185.64 283.088 188.12 283.088C190.616 283.088 192.552 284.832 192.552 287.6ZM185.176 287.6C185.176 289.824 186.536 290.864 188.056 290.864C189.576 290.864 191.064 289.824 191.064 287.6C191.064 285.392 189.608 284.352 188.104 284.352C186.568 284.352 185.176 285.392 185.176 287.6ZM186.28 281.376L189.688 279.376V280.64L186.28 282.464V281.376ZM193.922 287.584C193.922 284.848 195.73 283.088 198.082 283.088C199.682 283.088 200.834 283.888 201.346 284.832V283.232H202.818V292.192C202.818 294.608 201.202 296.32 198.626 296.32C196.322 296.32 194.674 295.152 194.386 293.28H195.826C196.146 294.336 197.186 295.056 198.626 295.056C200.178 295.056 201.346 294.064 201.346 292.192V290.352C200.818 291.296 199.682 292.144 198.082 292.144C195.73 292.144 193.922 290.304 193.922 287.584ZM201.346 287.6C201.346 285.568 199.97 284.352 198.37 284.352C196.77 284.352 195.41 285.52 195.41 287.584C195.41 289.648 196.77 290.864 198.37 290.864C199.97 290.864 201.346 289.664 201.346 287.6ZM205.279 292V283.232H206.735V292H205.279ZM206.031 281.808C205.471 281.808 205.039 281.376 205.039 280.816C205.039 280.256 205.471 279.824 206.031 279.824C206.559 279.824 206.991 280.256 206.991 280.816C206.991 281.376 206.559 281.808 206.031 281.808ZM208.672 287.6C208.672 284.848 210.448 283.088 212.944 283.088C215.12 283.088 216.544 284.208 216.992 286.048H215.424C215.12 284.992 214.24 284.32 212.944 284.32C211.344 284.32 210.16 285.456 210.16 287.6C210.16 289.776 211.344 290.912 212.944 290.912C214.24 290.912 215.104 290.288 215.424 289.184H216.992C216.544 290.928 215.12 292.144 212.944 292.144C210.448 292.144 208.672 290.384 208.672 287.6ZM218.391 287.584C218.391 284.848 220.199 283.088 222.551 283.088C224.183 283.088 225.303 283.92 225.815 284.832V283.232H227.287V292H225.815V290.368C225.287 291.312 224.151 292.144 222.535 292.144C220.199 292.144 218.391 290.304 218.391 287.584ZM225.815 287.6C225.815 285.568 224.439 284.352 222.839 284.352C221.239 284.352 219.879 285.52 219.879 287.584C219.879 289.648 221.239 290.864 222.839 290.864C224.439 290.864 225.815 289.664 225.815 287.6ZM236.052 289.616C236.052 291.056 234.788 292.144 232.852 292.144C230.804 292.144 229.364 291.024 229.268 289.424H230.772C230.852 290.272 231.604 290.912 232.836 290.912C233.988 290.912 234.628 290.336 234.628 289.616C234.628 287.664 229.444 288.8 229.444 285.536C229.444 284.192 230.708 283.088 232.66 283.088C234.596 283.088 235.876 284.128 235.972 285.84H234.516C234.452 284.96 233.78 284.32 232.612 284.32C231.54 284.32 230.9 284.832 230.9 285.536C230.9 287.616 235.988 286.48 236.052 289.616ZM239.531 291.104C239.531 291.664 239.099 292.096 238.571 292.096C238.011 292.096 237.579 291.664 237.579 291.104C237.579 290.544 238.011 290.112 238.571 290.112C239.099 290.112 239.531 290.544 239.531 291.104ZM240.986 282.448L240.794 279.264H242.17L241.994 282.448H240.986ZM243.146 282.448L242.954 279.264H244.33L244.154 282.448H243.146Z" fill="white" fill-opacity="0.7"/>
<path d="M33 221H252" stroke="white" stroke-opacity="0.7" stroke-linecap="round"/>
</svg>
