<svg width="285" height="337" viewBox="0 0 285 337" fill="none" xmlns="http://www.w3.org/2000/svg">
<rect x="1" y="1" width="283" height="335" fill="#24273F" stroke="#485082" stroke-width="2"/>
<path d="M33.752 258.448L33.56 255.264H34.936L34.76 258.448H33.752ZM35.912 258.448L35.72 255.264H37.096L36.92 258.448H35.912ZM44.9039 256.832V258.032H40.3599V261.76H44.4239V262.96H40.3599V266.8H44.9039V268H38.9039V256.832H44.9039ZM51.683 268L49.603 264.736L47.603 268H46.083L48.915 263.648L46.083 259.232H47.731L49.811 262.48L51.795 259.232H53.315L50.499 263.568L53.331 268H51.683ZM56.2193 260.848C56.7473 259.92 57.8993 259.088 59.4993 259.088C61.8513 259.088 63.6593 260.848 63.6593 263.584C63.6593 266.304 61.8513 268.144 59.4993 268.144C57.8993 268.144 56.7633 267.28 56.2193 266.384V272.16H54.7633V259.232H56.2193V260.848ZM62.1713 263.584C62.1713 261.52 60.8113 260.352 59.1953 260.352C57.6113 260.352 56.2193 261.568 56.2193 263.6C56.2193 265.664 57.6113 266.864 59.1953 266.864C60.8113 266.864 62.1713 265.648 62.1713 263.584ZM65.5758 268V256.16H67.0318V268H65.5758ZM77.8333 263.6C77.8333 266.384 75.8333 268.144 73.3373 268.144C70.8573 268.144 68.9693 266.384 68.9693 263.6C68.9693 260.832 70.9213 259.088 73.4013 259.088C75.8973 259.088 77.8333 260.832 77.8333 263.6ZM70.4573 263.6C70.4573 265.824 71.8173 266.864 73.3373 266.864C74.8573 266.864 76.3453 265.824 76.3453 263.6C76.3453 261.392 74.8893 260.352 73.3853 260.352C71.8493 260.352 70.4573 261.392 70.4573 263.6ZM81.2036 263.232V268H79.7476V259.232H81.2036V260.656C81.6996 259.68 82.6436 259.072 84.0356 259.072V260.576H83.6516C82.2596 260.576 81.2036 261.2 81.2036 263.232ZM89.4444 260.32C88.0204 260.32 86.8364 261.264 86.6764 262.976H92.2124C92.2284 261.264 90.9484 260.32 89.4444 260.32ZM93.5404 265.296C93.0924 266.896 91.6844 268.144 89.5084 268.144C87.0124 268.144 85.1724 266.384 85.1724 263.6C85.1724 260.832 86.9484 259.088 89.5084 259.088C92.0524 259.088 93.7164 260.88 93.7164 263.28C93.7164 263.6 93.7004 263.856 93.6684 264.16H86.6604C86.7724 265.936 88.0204 266.912 89.5084 266.912C90.8204 266.912 91.6524 266.24 91.9724 265.296H93.5404ZM99.9039 268V256.16H101.36V268H99.9039ZM111.617 259.232V268H110.161V266.704C109.601 267.616 108.529 268.128 107.361 268.128C105.345 268.128 103.761 266.88 103.761 264.368V259.232H105.201V264.176C105.201 265.952 106.177 266.864 107.649 266.864C109.153 266.864 110.161 265.936 110.161 264.048V259.232H111.617ZM113.532 263.584C113.532 260.848 115.34 259.088 117.692 259.088C119.292 259.088 120.444 259.888 120.956 260.832V259.232H122.428V268.192C122.428 270.608 120.812 272.32 118.236 272.32C115.932 272.32 114.284 271.152 113.996 269.28H115.436C115.756 270.336 116.796 271.056 118.236 271.056C119.788 271.056 120.956 270.064 120.956 268.192V266.352C120.428 267.296 119.292 268.144 117.692 268.144C115.34 268.144 113.532 266.304 113.532 263.584ZM120.956 263.6C120.956 261.568 119.58 260.352 117.98 260.352C116.38 260.352 115.02 261.52 115.02 263.584C115.02 265.648 116.38 266.864 117.98 266.864C119.58 266.864 120.956 265.664 120.956 263.6ZM124.344 263.584C124.344 260.848 126.152 259.088 128.504 259.088C130.136 259.088 131.256 259.92 131.768 260.832V259.232H133.24V268H131.768V266.368C131.24 267.312 130.104 268.144 128.488 268.144C126.152 268.144 124.344 266.304 124.344 263.584ZM131.768 263.6C131.768 261.568 130.392 260.352 128.792 260.352C127.192 260.352 125.832 261.52 125.832 263.584C125.832 265.648 127.192 266.864 128.792 266.864C130.392 266.864 131.768 265.664 131.768 263.6ZM137.157 263.232V268H135.701V259.232H137.157V260.656C137.653 259.68 138.597 259.072 139.989 259.072V260.576H139.605C138.213 260.576 137.157 261.2 137.157 263.232ZM145.398 260.32C143.974 260.32 142.789 261.264 142.63 262.976H148.166C148.182 261.264 146.902 260.32 145.398 260.32ZM149.494 265.296C149.046 266.896 147.638 268.144 145.462 268.144C142.966 268.144 141.126 266.384 141.126 263.6C141.126 260.832 142.902 259.088 145.462 259.088C148.006 259.088 149.67 260.88 149.67 263.28C149.67 263.6 149.654 263.856 149.622 264.16H142.614C142.726 265.936 143.974 266.912 145.462 266.912C146.774 266.912 147.606 266.24 147.926 265.296H149.494ZM157.895 265.616C157.895 267.056 156.631 268.144 154.695 268.144C152.647 268.144 151.207 267.024 151.111 265.424H152.615C152.695 266.272 153.447 266.912 154.679 266.912C155.831 266.912 156.471 266.336 156.471 265.616C156.471 263.664 151.287 264.8 151.287 261.536C151.287 260.192 152.551 259.088 154.503 259.088C156.439 259.088 157.719 260.128 157.815 261.84H156.359C156.295 260.96 155.623 260.32 154.455 260.32C153.383 260.32 152.743 260.832 152.743 261.536C152.743 263.616 157.831 262.48 157.895 265.616ZM163.672 263.584C163.672 260.848 165.48 259.088 167.832 259.088C169.464 259.088 170.584 259.92 171.096 260.832V259.232H172.568V268H171.096V266.368C170.568 267.312 169.432 268.144 167.816 268.144C165.48 268.144 163.672 266.304 163.672 263.584ZM171.096 263.6C171.096 261.568 169.72 260.352 168.12 260.352C166.52 260.352 165.16 261.52 165.16 263.584C165.16 265.648 166.52 266.864 168.12 266.864C169.72 266.864 171.096 265.664 171.096 263.6ZM183.349 263.6C183.349 266.384 181.349 268.144 178.853 268.144C176.373 268.144 174.485 266.384 174.485 263.6C174.485 260.832 176.437 259.088 178.917 259.088C181.413 259.088 183.349 260.832 183.349 263.6ZM175.973 263.6C175.973 265.824 177.333 266.864 178.853 266.864C180.373 266.864 181.861 265.824 181.861 263.6C181.861 261.392 180.405 260.352 178.901 260.352C177.365 260.352 175.973 261.392 175.973 263.6ZM190.985 263.232V268H189.529V259.232H190.985V260.656C191.481 259.68 192.425 259.072 193.817 259.072V260.576H193.433C192.041 260.576 190.985 261.2 190.985 263.232ZM199.226 260.32C197.802 260.32 196.618 261.264 196.458 262.976H201.994C202.01 261.264 200.73 260.32 199.226 260.32ZM203.322 265.296C202.874 266.896 201.466 268.144 199.29 268.144C196.794 268.144 194.954 266.384 194.954 263.6C194.954 260.832 196.73 259.088 199.29 259.088C201.834 259.088 203.498 260.88 203.498 263.28C203.498 263.6 203.482 263.856 203.45 264.16H196.442C196.554 265.936 197.802 266.912 199.29 266.912C200.602 266.912 201.434 266.24 201.754 265.296H203.322ZM204.876 263.584C204.876 260.848 206.684 259.088 209.052 259.088C210.428 259.088 211.692 259.792 212.3 260.8V256.16H213.772V268H212.3V266.352C211.772 267.328 210.636 268.144 209.036 268.144C206.684 268.144 204.876 266.304 204.876 263.584ZM212.3 263.6C212.3 261.568 210.924 260.352 209.324 260.352C207.724 260.352 206.364 261.52 206.364 263.584C206.364 265.648 207.724 266.864 209.324 266.864C210.924 266.864 212.3 265.664 212.3 263.6ZM224.552 263.6C224.552 266.384 222.552 268.144 220.056 268.144C217.576 268.144 215.688 266.384 215.688 263.6C215.688 260.832 217.64 259.088 220.12 259.088C222.616 259.088 224.552 260.832 224.552 263.6ZM217.176 263.6C217.176 265.824 218.536 266.864 220.056 266.864C221.576 266.864 223.064 265.824 223.064 263.6C223.064 261.392 221.608 260.352 220.104 260.352C218.568 260.352 217.176 261.392 217.176 263.6ZM227.922 263.232V268H226.466V259.232H227.922V260.656C228.418 259.68 229.362 259.072 230.754 259.072V260.576H230.37C228.978 260.576 227.922 261.2 227.922 263.232ZM33.688 287.584C33.688 284.848 35.496 283.088 37.864 283.088C39.24 283.088 40.504 283.792 41.112 284.8V280.16H42.584V292H41.112V290.352C40.584 291.328 39.448 292.144 37.848 292.144C35.496 292.144 33.688 290.304 33.688 287.584ZM41.112 287.6C41.112 285.568 39.736 284.352 38.136 284.352C36.536 284.352 35.176 285.52 35.176 287.584C35.176 289.648 36.536 290.864 38.136 290.864C39.736 290.864 41.112 289.664 41.112 287.6ZM53.3645 287.6C53.3645 290.384 51.3645 292.144 48.8685 292.144C46.3885 292.144 44.5005 290.384 44.5005 287.6C44.5005 284.832 46.4525 283.088 48.9325 283.088C51.4285 283.088 53.3645 284.832 53.3645 287.6ZM45.9885 287.6C45.9885 289.824 47.3485 290.864 48.8685 290.864C50.3885 290.864 51.8765 289.824 51.8765 287.6C51.8765 285.392 50.4205 284.352 48.9165 284.352C47.3805 284.352 45.9885 285.392 45.9885 287.6ZM59.0005 287.584C59.0005 284.848 60.8085 283.088 63.1605 283.088C64.7605 283.088 65.9125 283.888 66.4245 284.832V283.232H67.8965V292.192C67.8965 294.608 66.2805 296.32 63.7045 296.32C61.4005 296.32 59.7525 295.152 59.4645 293.28H60.9045C61.2245 294.336 62.2645 295.056 63.7045 295.056C65.2565 295.056 66.4245 294.064 66.4245 292.192V290.352C65.8965 291.296 64.7605 292.144 63.1605 292.144C60.8085 292.144 59.0005 290.304 59.0005 287.584ZM66.4245 287.6C66.4245 285.568 65.0485 284.352 63.4485 284.352C61.8485 284.352 60.4885 285.52 60.4885 287.584C60.4885 289.648 61.8485 290.864 63.4485 290.864C65.0485 290.864 66.4245 289.664 66.4245 287.6ZM70.357 292V280.16H71.813V292H70.357ZM82.6145 287.6C82.6145 290.384 80.6145 292.144 78.1185 292.144C75.6385 292.144 73.7505 290.384 73.7505 287.6C73.7505 284.832 75.7025 283.088 78.1825 283.088C80.6785 283.088 82.6145 284.832 82.6145 287.6ZM75.2385 287.6C75.2385 289.824 76.5985 290.864 78.1185 290.864C79.6385 290.864 81.1265 289.824 81.1265 287.6C81.1265 285.392 79.6705 284.352 78.1665 284.352C76.6305 284.352 75.2385 285.392 75.2385 287.6ZM85.9849 284.864C86.5449 283.888 87.7129 283.088 89.2649 283.088C91.6329 283.088 93.4249 284.848 93.4249 287.584C93.4249 290.304 91.6169 292.144 89.2649 292.144C87.6649 292.144 86.5289 291.344 85.9849 290.384V292H84.5289V280.16H85.9849V284.864ZM91.9369 287.584C91.9369 285.52 90.5769 284.352 88.9609 284.352C87.3769 284.352 85.9849 285.568 85.9849 287.6C85.9849 289.664 87.3769 290.864 88.9609 290.864C90.5769 290.864 91.9369 289.648 91.9369 287.584ZM103.661 287.6C103.661 290.384 101.661 292.144 99.1654 292.144C96.6854 292.144 94.7974 290.384 94.7974 287.6C94.7974 284.832 96.7494 283.088 99.2294 283.088C101.725 283.088 103.661 284.832 103.661 287.6ZM96.2854 287.6C96.2854 289.824 97.6454 290.864 99.1654 290.864C100.685 290.864 102.173 289.824 102.173 287.6C102.173 285.392 100.717 284.352 99.2134 284.352C97.6774 284.352 96.2854 285.392 96.2854 287.6ZM107 291.104C107 291.664 106.568 292.096 106.04 292.096C105.48 292.096 105.048 291.664 105.048 291.104C105.048 290.544 105.48 290.112 106.04 290.112C106.568 290.112 107 290.544 107 291.104ZM108.455 282.448L108.263 279.264H109.639L109.463 282.448H108.455ZM110.615 282.448L110.423 279.264H111.799L111.623 282.448H110.615Z" fill="white" fill-opacity="0.7"/>
<path d="M37.554 52.2691C34.702 56.1101 33 60.8481 33 66C33 78.696 43.304 89 56 89" stroke="white" stroke-width="3" stroke-linecap="round" stroke-linejoin="round"/>
<path d="M78.9996 66C78.9996 53.304 68.6956 43 55.9996 43C52.5036 43 49.2146 43.782 46.2476 45.162" stroke="white" stroke-width="3" stroke-linecap="round" stroke-linejoin="round"/>
<path d="M67.2469 80.581V80.0089C67.2469 78.1562 68.3912 77.1754 69.5355 76.3853C70.6526 75.6224 71.7694 74.6416 71.7694 72.8434C71.7694 70.3369 69.7535 68.3206 67.2469 68.3206C64.7404 68.3206 62.7242 70.3369 62.7242 72.8434" stroke="white" stroke-width="3" stroke-linecap="round" stroke-linejoin="round"/>
<path d="M67.2346 87.0926H67.2591" stroke="white" stroke-width="3" stroke-linecap="round" stroke-linejoin="round"/>
<path d="M42.408 129.104C45.888 129.104 48.888 130.856 50.16 134.12H46.872C45.984 132.44 44.4 131.6 42.408 131.6C39.096 131.6 36.696 133.952 36.696 137.624C36.696 141.296 39.096 143.672 42.408 143.672C45.432 143.672 47.328 141.848 47.736 139.04H41.472V136.856H50.664V138.992C50.16 142.856 46.896 146.144 42.408 146.144C37.704 146.144 33.888 142.64 33.888 137.624C33.888 132.632 37.704 129.104 42.408 129.104ZM58.9305 134.864C57.0825 134.864 55.5945 136.112 55.3065 138.2H62.6265C62.5785 136.16 60.9705 134.864 58.9305 134.864ZM65.1225 142.064C64.3785 144.368 62.2905 146.216 59.0505 146.216C55.2585 146.216 52.4505 143.528 52.4505 139.376C52.4505 135.224 55.1385 132.56 59.0505 132.56C62.8185 132.56 65.4825 135.176 65.4825 139.064C65.4825 139.52 65.4585 139.952 65.3865 140.408H55.2825C55.4745 142.592 57.0345 143.912 59.0505 143.912C60.7305 143.912 61.6665 143.096 62.1705 142.064H65.1225ZM80.775 139.376C80.775 143.528 77.703 146.216 73.911 146.216C70.143 146.216 67.287 143.528 67.287 139.376C67.287 135.224 70.263 132.56 74.031 132.56C77.799 132.56 80.775 135.224 80.775 139.376ZM70.071 139.376C70.071 142.376 71.847 143.84 73.911 143.84C75.951 143.84 77.967 142.376 77.967 139.376C77.967 136.376 76.023 134.936 73.983 134.936C71.919 134.936 70.071 136.376 70.071 139.376ZM82.5677 139.328C82.5677 135.248 85.3277 132.56 88.8077 132.56C90.9677 132.56 92.5757 133.568 93.3917 134.696V132.776H96.1517V146.216C96.1517 149.816 93.8237 152.528 89.6957 152.528C86.1677 152.528 83.5517 150.776 83.2157 147.848H85.9277C86.3357 149.216 87.7997 150.152 89.6957 150.152C91.8077 150.152 93.3917 148.856 93.3917 146.216V144.008C92.5517 145.136 90.9677 146.216 88.8077 146.216C85.3277 146.216 82.5677 143.408 82.5677 139.328ZM93.3917 139.376C93.3917 136.544 91.4477 134.936 89.3837 134.936C87.3437 134.936 85.3757 136.472 85.3757 139.328C85.3757 142.184 87.3437 143.84 89.3837 143.84C91.4477 143.84 93.3917 142.232 93.3917 139.376ZM102.481 139.04V146H99.7453V132.776H102.481V134.696C103.249 133.376 104.569 132.56 106.441 132.56V135.392H105.745C103.729 135.392 102.481 136.232 102.481 139.04ZM108.044 139.328C108.044 135.248 110.804 132.56 114.284 132.56C116.516 132.56 118.052 133.616 118.868 134.696V132.776H121.628V146H118.868V144.032C118.028 145.16 116.444 146.216 114.236 146.216C110.804 146.216 108.044 143.408 108.044 139.328ZM118.868 139.376C118.868 136.544 116.924 134.936 114.86 134.936C112.82 134.936 110.852 136.472 110.852 139.328C110.852 142.184 112.82 143.84 114.86 143.84C116.924 143.84 118.868 142.232 118.868 139.376ZM125.558 146V135.008H123.998V132.776H125.558V131.84C125.558 128.792 127.118 127.472 130.574 127.472V129.752C128.894 129.752 128.318 130.328 128.318 131.84V132.776H130.766V135.008H128.318V146H125.558ZM133.191 146V132.776H135.927V146H133.191ZM134.583 131.024C133.599 131.024 132.831 130.256 132.831 129.272C132.831 128.288 133.599 127.52 134.583 127.52C135.543 127.52 136.311 128.288 136.311 129.272C136.311 130.256 135.543 131.024 134.583 131.024ZM138.607 139.328C138.607 135.248 141.367 132.56 144.847 132.56C147.079 132.56 148.615 133.616 149.431 134.696V132.776H152.191V146H149.431V144.032C148.591 145.16 147.007 146.216 144.799 146.216C141.367 146.216 138.607 143.408 138.607 139.328ZM149.431 139.376C149.431 136.544 147.487 134.936 145.423 134.936C143.383 134.936 141.415 136.472 141.415 139.328C141.415 142.184 143.383 143.84 145.423 143.84C147.487 143.84 149.431 142.232 149.431 139.376ZM34.8 182V165.32H37.752L43.608 178.4L49.44 165.32H52.368V182H49.632V170.576L44.544 182H42.648L37.536 170.576V182H34.8ZM67.9401 168.776V182H65.2041V180.416C64.3401 181.544 62.8521 182.192 61.2921 182.192C58.1961 182.192 55.8441 180.248 55.8441 176.552V168.776H58.5561V176.144C58.5561 178.568 59.8761 179.816 61.8681 179.816C63.8841 179.816 65.2041 178.568 65.2041 176.144V168.776H67.9401ZM80.934 182V174.608C80.934 172.184 79.614 170.936 77.622 170.936C75.606 170.936 74.286 172.184 74.286 174.608V182H71.55V168.776H74.286V170.288C75.174 169.208 76.638 168.56 78.222 168.56C81.318 168.56 83.646 170.504 83.646 174.2V182H80.934ZM86.2239 175.328C86.2239 171.248 88.9839 168.56 92.4879 168.56C94.2159 168.56 96.0399 169.376 97.0479 170.624V164.24H99.8079V182H97.0479V180.008C96.2079 181.208 94.6239 182.216 92.4639 182.216C88.9839 182.216 86.2239 179.408 86.2239 175.328ZM97.0479 175.376C97.0479 172.544 95.1039 170.936 93.0399 170.936C90.9999 170.936 89.0319 172.472 89.0319 175.328C89.0319 178.184 90.9999 179.84 93.0399 179.84C95.1039 179.84 97.0479 178.232 97.0479 175.376ZM103.402 182V168.776H106.138V182H103.402ZM104.794 167.024C103.81 167.024 103.042 166.256 103.042 165.272C103.042 164.288 103.81 163.52 104.794 163.52C105.754 163.52 106.522 164.288 106.522 165.272C106.522 166.256 105.754 167.024 104.794 167.024ZM108.818 175.328C108.818 171.248 111.578 168.56 115.058 168.56C117.29 168.56 118.826 169.616 119.642 170.696V168.776H122.402V182H119.642V180.032C118.802 181.16 117.218 182.216 115.01 182.216C111.578 182.216 108.818 179.408 108.818 175.328ZM119.642 175.376C119.642 172.544 117.698 170.936 115.634 170.936C113.594 170.936 111.626 172.472 111.626 175.328C111.626 178.184 113.594 179.84 115.634 179.84C117.698 179.84 119.642 178.232 119.642 175.376ZM125.995 182V164.24H128.731V182H125.995Z" fill="white"/>
<path d="M33 221H252" stroke="white" stroke-opacity="0.7" stroke-linecap="round"/>
</svg>
