<svg width="285" height="337" viewBox="0 0 285 337" fill="none" xmlns="http://www.w3.org/2000/svg">
<rect x="1" y="1" width="283" height="335" fill="#24273F" stroke="#485082" stroke-width="2"/>
<path d="M41.04 54.94C38.5 58.3 37 62.48 37 67C37 78.04 45.96 87 57 87C68.04 87 77 78.04 77 67C77 55.96 68.04 47 57 47" stroke="white" stroke-width="1.5" stroke-linecap="round" stroke-linejoin="round"/>
<path d="M43 67C43 74.74 49.26 81 57 81C64.74 81 71 74.74 71 67C71 59.26 64.74 53 57 53" stroke="white" stroke-width="1.5" stroke-linecap="round" stroke-linejoin="round"/>
<path d="M57 75C61.42 75 65 71.42 65 67C65 62.58 61.42 59 57 59" stroke="white" stroke-width="1.5" stroke-linecap="round" stroke-linejoin="round"/>
<path d="M37.888 123.624C37.888 118.632 41.704 115.104 46.408 115.104C49.888 115.104 52.888 116.856 54.16 120.12H50.872C49.984 118.344 48.4 117.504 46.408 117.504C43.096 117.504 40.696 119.856 40.696 123.624C40.696 127.392 43.096 129.768 46.408 129.768C48.4 129.768 49.984 128.928 50.872 127.152H54.16C52.888 130.416 49.888 132.144 46.408 132.144C41.704 132.144 37.888 128.64 37.888 123.624ZM57.3625 132V118.776H60.0985V132H57.3625ZM58.7545 117.024C57.7705 117.024 57.0025 116.256 57.0025 115.272C57.0025 114.288 57.7705 113.52 58.7545 113.52C59.7145 113.52 60.4825 114.288 60.4825 115.272C60.4825 116.256 59.7145 117.024 58.7545 117.024ZM69.2586 120.864C67.4106 120.864 65.9226 122.112 65.6346 124.2H72.9546C72.9066 122.16 71.2986 120.864 69.2586 120.864ZM75.4506 128.064C74.7066 130.368 72.6186 132.216 69.3786 132.216C65.5866 132.216 62.7786 129.528 62.7786 125.376C62.7786 121.224 65.4666 118.56 69.3786 118.56C73.1466 118.56 75.8106 121.176 75.8106 125.064C75.8106 125.52 75.7866 125.952 75.7146 126.408H65.6106C65.8026 128.592 67.3626 129.912 69.3786 129.912C71.0586 129.912 71.9946 129.096 72.4986 128.064H75.4506ZM72.7386 115.704V117.84L69.3066 115.776L65.8746 117.84V115.704L69.3066 113.712L72.7386 115.704ZM87.8871 132V124.608C87.8871 122.184 86.5671 120.936 84.5751 120.936C82.5591 120.936 81.2391 122.184 81.2391 124.608V132H78.5031V118.776H81.2391V120.288C82.1271 119.208 83.5911 118.56 85.1751 118.56C88.2711 118.56 90.5991 120.504 90.5991 124.2V132H87.8871ZM93.1771 125.376C93.1771 121.248 95.8651 118.56 99.6571 118.56C102.897 118.56 105.009 120.168 105.753 122.952H102.801C102.345 121.68 101.289 120.864 99.6571 120.864C97.4491 120.864 95.9851 122.496 95.9851 125.376C95.9851 128.28 97.4491 129.912 99.6571 129.912C101.289 129.912 102.297 129.192 102.801 127.824H105.753C105.009 130.416 102.897 132.216 99.6571 132.216C95.8651 132.216 93.1771 129.528 93.1771 125.376ZM108.48 132V118.776H111.216V132H108.48ZM109.872 117.024C108.888 117.024 108.12 116.256 108.12 115.272C108.12 114.288 108.888 113.52 109.872 113.52C110.832 113.52 111.6 114.288 111.6 115.272C111.6 116.256 110.832 117.024 109.872 117.024ZM113.896 125.328C113.896 121.248 116.656 118.56 120.136 118.56C122.368 118.56 123.904 119.616 124.72 120.696V118.776H127.48V132H124.72V130.032C123.88 131.16 122.296 132.216 120.088 132.216C116.656 132.216 113.896 129.408 113.896 125.328ZM124.72 125.376C124.72 122.544 122.776 120.936 120.712 120.936C118.672 120.936 116.704 122.472 116.704 125.328C116.704 128.184 118.672 129.84 120.712 129.84C122.776 129.84 124.72 128.232 124.72 125.376ZM142.876 120.864C141.028 120.864 139.54 122.112 139.252 124.2H146.572C146.524 122.16 144.916 120.864 142.876 120.864ZM149.068 128.064C148.324 130.368 146.236 132.216 142.996 132.216C139.204 132.216 136.396 129.528 136.396 125.376C136.396 121.224 139.084 118.56 142.996 118.56C146.764 118.56 149.428 121.176 149.428 125.064C149.428 125.52 149.404 125.952 149.332 126.408H139.228C139.42 128.592 140.98 129.912 142.996 129.912C144.676 129.912 145.612 129.096 146.116 128.064H149.068ZM37.936 153.552V151.32H49.576V153.552H45.136V168H42.4V153.552H37.936ZM57.9149 156.864C56.0669 156.864 54.5789 158.112 54.2909 160.2H61.6109C61.5629 158.16 59.9549 156.864 57.9149 156.864ZM64.1069 164.064C63.3629 166.368 61.2749 168.216 58.0349 168.216C54.2429 168.216 51.4349 165.528 51.4349 161.376C51.4349 157.224 54.1229 154.56 58.0349 154.56C61.8029 154.56 64.4669 157.176 64.4669 161.064C64.4669 161.52 64.4429 161.952 64.3709 162.408H54.2669C54.4589 164.592 56.0189 165.912 58.0349 165.912C59.7149 165.912 60.6509 165.096 61.1549 164.064H64.1069ZM66.2474 161.376C66.2474 157.248 68.9354 154.56 72.7274 154.56C75.9674 154.56 78.0794 156.168 78.8234 158.952H75.8714C75.4154 157.68 74.3594 156.864 72.7274 156.864C70.5194 156.864 69.0554 158.496 69.0554 161.376C69.0554 164.28 70.5194 165.912 72.7274 165.912C74.3594 165.912 75.3674 165.192 75.8714 163.824H78.8234C78.0794 166.416 75.9674 168.216 72.7274 168.216C68.9354 168.216 66.2474 165.528 66.2474 161.376ZM90.934 168V160.608C90.934 158.184 89.614 156.936 87.622 156.936C85.606 156.936 84.286 158.184 84.286 160.608V168H81.55V154.776H84.286V156.288C85.174 155.208 86.638 154.56 88.222 154.56C91.318 154.56 93.646 156.504 93.646 160.2V168H90.934ZM109.736 161.376C109.736 165.528 106.664 168.216 102.872 168.216C99.1039 168.216 96.2479 165.528 96.2479 161.376C96.2479 157.224 99.2239 154.56 102.992 154.56C106.76 154.56 109.736 157.224 109.736 161.376ZM99.0319 161.376C99.0319 164.376 100.808 165.84 102.872 165.84C104.912 165.84 106.928 164.376 106.928 161.376C106.928 158.376 104.984 156.936 102.944 156.936C100.88 156.936 99.0319 158.376 99.0319 161.376ZM112.441 168V150.24H115.177V168H112.441ZM131.369 161.376C131.369 165.528 128.297 168.216 124.505 168.216C120.737 168.216 117.881 165.528 117.881 161.376C117.881 157.224 120.857 154.56 124.625 154.56C128.393 154.56 131.369 157.224 131.369 161.376ZM120.665 161.376C120.665 164.376 122.441 165.84 124.505 165.84C126.545 165.84 128.561 164.376 128.561 161.376C128.561 158.376 126.617 156.936 124.577 156.936C122.513 156.936 120.665 158.376 120.665 161.376ZM133.161 161.328C133.161 157.248 135.921 154.56 139.401 154.56C141.561 154.56 143.169 155.568 143.985 156.696V154.776H146.745V168.216C146.745 171.816 144.417 174.528 140.289 174.528C136.761 174.528 134.145 172.776 133.809 169.848H136.521C136.929 171.216 138.393 172.152 140.289 172.152C142.401 172.152 143.985 170.856 143.985 168.216V166.008C143.145 167.136 141.561 168.216 139.401 168.216C135.921 168.216 133.161 165.408 133.161 161.328ZM143.985 161.376C143.985 158.544 142.041 156.936 139.977 156.936C137.937 156.936 135.969 158.472 135.969 161.328C135.969 164.184 137.937 165.84 139.977 165.84C142.041 165.84 143.985 164.232 143.985 161.376ZM150.339 168V154.776H153.075V168H150.339ZM151.731 153.024C150.747 153.024 149.979 152.256 149.979 151.272C149.979 150.288 150.747 149.52 151.731 149.52C152.691 149.52 153.459 150.288 153.459 151.272C153.459 152.256 152.691 153.024 151.731 153.024ZM155.755 161.328C155.755 157.248 158.515 154.56 161.995 154.56C164.227 154.56 165.763 155.616 166.579 156.696V154.776H169.339V168H166.579V166.032C165.739 167.16 164.155 168.216 161.947 168.216C158.515 168.216 155.755 165.408 155.755 161.328ZM166.579 161.376C166.579 158.544 164.635 156.936 162.571 156.936C160.531 156.936 158.563 158.472 158.563 161.328C158.563 164.184 160.531 165.84 162.571 165.84C164.635 165.84 166.579 164.232 166.579 161.376Z" fill="white"/>
<path d="M33.752 257.448L33.56 254.264H34.936L34.76 257.448H33.752ZM35.912 257.448L35.72 254.264H37.096L36.92 257.448H35.912ZM38.3599 261.416C38.3599 258.072 40.8079 255.704 43.9279 255.704C46.3439 255.704 48.2639 256.92 49.0959 259.08H47.3519C46.7439 257.736 45.5599 256.984 43.9279 256.984C41.5919 256.984 39.8479 258.68 39.8479 261.416C39.8479 264.136 41.5919 265.832 43.9279 265.832C45.5599 265.832 46.7439 265.08 47.3519 263.752H49.0959C48.2639 265.896 46.3439 267.096 43.9279 267.096C40.8079 267.096 38.3599 264.76 38.3599 261.416ZM59.5833 262.6C59.5833 265.384 57.5833 267.144 55.0873 267.144C52.6073 267.144 50.7193 265.384 50.7193 262.6C50.7193 259.832 52.6713 258.088 55.1513 258.088C57.6473 258.088 59.5833 259.832 59.5833 262.6ZM52.2073 262.6C52.2073 264.824 53.5673 265.864 55.0873 265.864C56.6073 265.864 58.0953 264.824 58.0953 262.6C58.0953 260.392 56.6393 259.352 55.1353 259.352C53.5993 259.352 52.2073 260.392 52.2073 262.6ZM67.9136 267V262.04C67.9136 260.248 66.9376 259.336 65.4656 259.336C63.9776 259.336 62.9536 260.264 62.9536 262.152V267H61.4976V258.232H62.9536V259.48C63.5296 258.568 64.5856 258.072 65.7696 258.072C67.8016 258.072 69.3536 259.32 69.3536 261.832V267H67.9136ZM71.732 267V255.16H73.188V259.496C73.764 258.568 74.852 258.072 76.084 258.072C78.036 258.072 79.588 259.32 79.588 261.832V267H78.148V262.04C78.148 260.248 77.172 259.336 75.7 259.336C74.212 259.336 73.188 260.264 73.188 262.152V267H71.732ZM85.6944 259.32C84.2704 259.32 83.0864 260.264 82.9264 261.976H88.4624C88.4784 260.264 87.1984 259.32 85.6944 259.32ZM89.7904 264.296C89.3424 265.896 87.9344 267.144 85.7584 267.144C83.2624 267.144 81.4224 265.384 81.4224 262.6C81.4224 259.832 83.1984 258.088 85.7584 258.088C88.3024 258.088 89.9664 259.88 89.9664 262.28C89.9664 262.6 89.9504 262.856 89.9184 263.16H82.9104C83.0224 264.936 84.2704 265.912 85.7584 265.912C87.0704 265.912 87.9024 265.24 88.2224 264.296H89.7904ZM91.3443 262.6C91.3443 259.848 93.1203 258.088 95.6163 258.088C97.7923 258.088 99.2163 259.208 99.6643 261.048H98.0963C97.7923 259.992 96.9123 259.32 95.6163 259.32C94.0163 259.32 92.8323 260.456 92.8323 262.6C92.8323 264.776 94.0163 265.912 95.6163 265.912C96.9123 265.912 97.7763 265.288 98.0963 264.184H99.6643C99.2483 265.8 97.9843 266.968 96.0643 267.128V267.928C97.2963 267.912 98.1283 268.456 98.1283 269.512C98.1283 270.52 97.3123 271.16 96.1763 271.16H94.3363V270.216H95.8883C96.5763 270.216 96.9123 270.024 96.9123 269.512C96.9123 269.016 96.5763 268.824 95.8883 268.824H95.0883V267.112C92.8803 266.888 91.3443 265.176 91.3443 262.6ZM101.063 262.584C101.063 259.848 102.871 258.088 105.223 258.088C106.855 258.088 107.975 258.92 108.487 259.832V258.232H109.959V267H108.487V265.368C107.959 266.312 106.823 267.144 105.207 267.144C102.871 267.144 101.063 265.304 101.063 262.584ZM108.487 262.6C108.487 260.568 107.111 259.352 105.511 259.352C103.911 259.352 102.551 260.52 102.551 262.584C102.551 264.648 103.911 265.864 105.511 265.864C107.111 265.864 108.487 264.664 108.487 262.6ZM116.685 267V258.232H118.141V267H116.685ZM117.437 256.808C116.877 256.808 116.445 256.376 116.445 255.816C116.445 255.256 116.877 254.824 117.437 254.824C117.965 254.824 118.397 255.256 118.397 255.816C118.397 256.376 117.965 256.808 117.437 256.808ZM127.039 267V262.04C127.039 260.248 126.063 259.336 124.591 259.336C123.103 259.336 122.079 260.264 122.079 262.152V267H120.623V258.232H122.079V259.48C122.655 258.568 123.711 258.072 124.895 258.072C126.927 258.072 128.479 259.32 128.479 261.832V267H127.039ZM139.177 262.6C139.177 265.384 137.177 267.144 134.681 267.144C132.201 267.144 130.313 265.384 130.313 262.6C130.313 259.832 132.265 258.088 134.745 258.088C137.241 258.088 139.177 259.832 139.177 262.6ZM131.801 262.6C131.801 264.824 133.161 265.864 134.681 265.864C136.201 265.864 137.689 264.824 137.689 262.6C137.689 260.392 136.233 259.352 134.729 259.352C133.193 259.352 131.801 260.392 131.801 262.6ZM140.051 258.232H141.619L144.355 265.656L147.075 258.232H148.627L145.187 267H143.491L140.051 258.232ZM149.516 262.584C149.516 259.848 151.324 258.088 153.676 258.088C155.308 258.088 156.428 258.92 156.94 259.832V258.232H158.412V267H156.94V265.368C156.412 266.312 155.276 267.144 153.66 267.144C151.324 267.144 149.516 265.304 149.516 262.584ZM156.94 262.6C156.94 260.568 155.564 259.352 153.964 259.352C152.364 259.352 151.004 260.52 151.004 262.584C151.004 264.648 152.364 265.864 153.964 265.864C155.564 265.864 156.94 264.664 156.94 262.6ZM160.329 262.6C160.329 259.848 162.105 258.088 164.601 258.088C166.777 258.088 168.201 259.208 168.649 261.048H167.081C166.777 259.992 165.897 259.32 164.601 259.32C163.001 259.32 161.817 260.456 161.817 262.6C161.817 264.776 163.001 265.912 164.601 265.912C165.897 265.912 166.761 265.288 167.081 264.184H168.649C168.233 265.8 166.969 266.968 165.049 267.128V267.928C166.281 267.912 167.113 268.456 167.113 269.512C167.113 270.52 166.297 271.16 165.161 271.16H163.321V270.216H164.873C165.561 270.216 165.897 270.024 165.897 269.512C165.897 269.016 165.561 268.824 164.873 268.824H164.073V267.112C161.865 266.888 160.329 265.176 160.329 262.6ZM178.911 262.6C178.911 265.384 176.911 267.144 174.415 267.144C171.935 267.144 170.047 265.384 170.047 262.6C170.047 259.832 171.999 258.088 174.479 258.088C176.975 258.088 178.911 259.832 178.911 262.6ZM171.535 262.6C171.535 264.824 172.895 265.864 174.415 265.864C175.935 265.864 177.423 264.824 177.423 262.6C177.423 260.392 175.967 259.352 174.463 259.352C172.927 259.352 171.535 260.392 171.535 262.6ZM172.143 257.176C172.303 256.072 172.911 255.496 173.743 255.496C174.591 255.496 174.911 256.232 175.567 256.232C175.919 256.232 176.207 256.008 176.271 255.544H177.103C176.975 256.632 176.335 257.208 175.503 257.208C174.639 257.208 174.319 256.472 173.679 256.472C173.327 256.472 173.055 256.696 172.991 257.176H172.143ZM184.554 259.32C183.13 259.32 181.946 260.264 181.786 261.976H187.322C187.338 260.264 186.058 259.32 184.554 259.32ZM188.65 264.296C188.202 265.896 186.794 267.144 184.618 267.144C182.122 267.144 180.282 265.384 180.282 262.6C180.282 259.832 182.058 258.088 184.618 258.088C187.162 258.088 188.826 259.88 188.826 262.28C188.826 262.6 188.81 262.856 188.778 263.16H181.77C181.882 264.936 183.13 265.912 184.618 265.912C185.93 265.912 186.762 265.24 187.082 264.296H188.65ZM197.052 264.616C197.052 266.056 195.788 267.144 193.852 267.144C191.804 267.144 190.364 266.024 190.268 264.424H191.772C191.852 265.272 192.604 265.912 193.836 265.912C194.988 265.912 195.628 265.336 195.628 264.616C195.628 262.664 190.444 263.8 190.444 260.536C190.444 259.192 191.708 258.088 193.66 258.088C195.596 258.088 196.876 259.128 196.972 260.84H195.516C195.452 259.96 194.78 259.32 193.612 259.32C192.54 259.32 191.9 259.832 191.9 260.536C191.9 262.616 196.988 261.48 197.052 264.616ZM33.688 286.6C33.688 283.848 35.464 282.088 37.96 282.088C40.136 282.088 41.56 283.208 42.008 285.048H40.44C40.136 283.992 39.256 283.32 37.96 283.32C36.36 283.32 35.176 284.456 35.176 286.6C35.176 288.776 36.36 289.912 37.96 289.912C39.256 289.912 40.12 289.288 40.44 288.184H42.008C41.56 289.928 40.136 291.144 37.96 291.144C35.464 291.144 33.688 289.384 33.688 286.6ZM43.9508 291V282.232H45.4068V291H43.9508ZM44.7028 280.808C44.1428 280.808 43.7108 280.376 43.7108 279.816C43.7108 279.256 44.1428 278.824 44.7028 278.824C45.2308 278.824 45.6628 279.256 45.6628 279.816C45.6628 280.376 45.2308 280.808 44.7028 280.808ZM51.6163 283.32C50.1923 283.32 49.0082 284.264 48.8483 285.976H54.3843C54.4003 284.264 53.1203 283.32 51.6163 283.32ZM55.7123 288.296C55.2643 289.896 53.8563 291.144 51.6803 291.144C49.1843 291.144 47.3443 289.384 47.3443 286.6C47.3443 283.832 49.1203 282.088 51.6803 282.088C54.2243 282.088 55.8883 283.88 55.8883 286.28C55.8883 286.6 55.8723 286.856 55.8403 287.16H48.8323C48.9443 288.936 50.1923 289.912 51.6803 289.912C52.9923 289.912 53.8243 289.24 54.1443 288.296H55.7123ZM64.2261 291V286.04C64.2261 284.248 63.2501 283.336 61.7781 283.336C60.2901 283.336 59.2661 284.264 59.2661 286.152V291H57.8101V282.232H59.2661V283.48C59.8421 282.568 60.8981 282.072 62.0821 282.072C64.1141 282.072 65.6661 283.32 65.6661 285.832V291H64.2261ZM68.3645 288.6V283.432H67.2285V282.232H68.3645V280.024H69.8205V282.232H72.1085V283.432H69.8205V288.6C69.8205 289.464 70.1405 289.768 71.0365 289.768H72.1085V291H70.7965C69.2445 291 68.3645 290.36 68.3645 288.6ZM73.8726 291V282.232H75.3286V291H73.8726ZM72.7526 280.488L76.1606 278.488V279.752L72.7526 281.576V280.488ZM78.0821 291V283.432H76.9461V282.232H78.0821V281.608C78.0821 279.656 79.0421 278.776 81.2821 278.776V279.992C79.9701 279.992 79.5381 280.472 79.5381 281.608V282.232H81.3781V283.432H79.5381V291H78.0821ZM83.0758 291V282.232H84.5318V291H83.0758ZM83.8278 280.808C83.2678 280.808 82.8358 280.376 82.8358 279.816C82.8358 279.256 83.2678 278.824 83.8278 278.824C84.3558 278.824 84.7878 279.256 84.7878 279.816C84.7878 280.376 84.3558 280.808 83.8278 280.808ZM86.4693 286.6C86.4693 283.848 88.2453 282.088 90.7413 282.088C92.9173 282.088 94.3413 283.208 94.7893 285.048H93.2213C92.9173 283.992 92.0373 283.32 90.7413 283.32C89.1413 283.32 87.9573 284.456 87.9573 286.6C87.9573 288.776 89.1413 289.912 90.7413 289.912C92.0373 289.912 92.9013 289.288 93.2213 288.184H94.7893C94.3413 289.928 92.9173 291.144 90.7413 291.144C88.2453 291.144 86.4693 289.384 86.4693 286.6ZM96.188 286.584C96.188 283.848 97.996 282.088 100.348 282.088C101.98 282.088 103.1 282.92 103.612 283.832V282.232H105.084V291H103.612V289.368C103.084 290.312 101.948 291.144 100.332 291.144C97.996 291.144 96.188 289.304 96.188 286.584ZM103.612 286.6C103.612 284.568 102.236 283.352 100.636 283.352C99.036 283.352 97.676 284.52 97.676 286.584C97.676 288.648 99.036 289.864 100.636 289.864C102.236 289.864 103.612 288.664 103.612 286.6ZM113.849 288.616C113.849 290.056 112.585 291.144 110.649 291.144C108.601 291.144 107.161 290.024 107.065 288.424H108.569C108.649 289.272 109.401 289.912 110.633 289.912C111.785 289.912 112.425 289.336 112.425 288.616C112.425 286.664 107.241 287.8 107.241 284.536C107.241 283.192 108.505 282.088 110.457 282.088C112.393 282.088 113.673 283.128 113.769 284.84H112.313C112.249 283.96 111.577 283.32 110.409 283.32C109.337 283.32 108.697 283.832 108.697 284.536C108.697 286.616 113.785 285.48 113.849 288.616ZM123.898 283.32C122.474 283.32 121.289 284.264 121.13 285.976H126.666C126.682 284.264 125.402 283.32 123.898 283.32ZM127.994 288.296C127.546 289.896 126.138 291.144 123.962 291.144C121.466 291.144 119.626 289.384 119.626 286.6C119.626 283.832 121.402 282.088 123.962 282.088C126.506 282.088 128.17 283.88 128.17 286.28C128.17 286.6 128.154 286.856 128.122 287.16H121.114C121.226 288.936 122.474 289.912 123.962 289.912C125.274 289.912 126.106 289.24 126.426 288.296H127.994ZM134.677 288.6V283.432H133.541V282.232H134.677V280.024H136.133V282.232H138.421V283.432H136.133V288.6C136.133 289.464 136.453 289.768 137.349 289.768H138.421V291H137.109C135.557 291 134.677 290.36 134.677 288.6ZM143.913 283.32C142.489 283.32 141.305 284.264 141.145 285.976H146.681C146.697 284.264 145.417 283.32 143.913 283.32ZM148.009 288.296C147.561 289.896 146.153 291.144 143.977 291.144C141.481 291.144 139.641 289.384 139.641 286.6C139.641 283.832 141.417 282.088 143.977 282.088C146.521 282.088 148.185 283.88 148.185 286.28C148.185 286.6 148.169 286.856 148.137 287.16H141.129C141.241 288.936 142.489 289.912 143.977 289.912C145.289 289.912 146.121 289.24 146.441 288.296H148.009ZM149.563 286.6C149.563 283.848 151.339 282.088 153.835 282.088C156.011 282.088 157.435 283.208 157.883 285.048H156.315C156.011 283.992 155.131 283.32 153.835 283.32C152.235 283.32 151.051 284.456 151.051 286.6C151.051 288.776 152.235 289.912 153.835 289.912C155.131 289.912 155.995 289.288 156.315 288.184H157.883C157.435 289.928 156.011 291.144 153.835 291.144C151.339 291.144 149.563 289.384 149.563 286.6ZM166.242 291V286.04C166.242 284.248 165.266 283.336 163.794 283.336C162.306 283.336 161.282 284.264 161.282 286.152V291H159.826V282.232H161.282V283.48C161.858 282.568 162.914 282.072 164.098 282.072C166.13 282.072 167.682 283.32 167.682 285.832V291H166.242ZM178.38 286.6C178.38 289.384 176.38 291.144 173.884 291.144C171.404 291.144 169.516 289.384 169.516 286.6C169.516 283.832 171.468 282.088 173.948 282.088C176.444 282.088 178.38 283.832 178.38 286.6ZM171.004 286.6C171.004 288.824 172.364 289.864 173.884 289.864C175.404 289.864 176.892 288.824 176.892 286.6C176.892 284.392 175.436 283.352 173.932 283.352C172.396 283.352 171.004 284.392 171.004 286.6ZM180.295 291V279.16H181.751V291H180.295ZM192.552 286.6C192.552 289.384 190.552 291.144 188.056 291.144C185.576 291.144 183.688 289.384 183.688 286.6C183.688 283.832 185.64 282.088 188.12 282.088C190.616 282.088 192.552 283.832 192.552 286.6ZM185.176 286.6C185.176 288.824 186.536 289.864 188.056 289.864C189.576 289.864 191.064 288.824 191.064 286.6C191.064 284.392 189.608 283.352 188.104 283.352C186.568 283.352 185.176 284.392 185.176 286.6ZM186.28 280.376L189.688 278.376V279.64L186.28 281.464V280.376ZM193.922 286.584C193.922 283.848 195.73 282.088 198.082 282.088C199.682 282.088 200.834 282.888 201.346 283.832V282.232H202.818V291.192C202.818 293.608 201.202 295.32 198.626 295.32C196.322 295.32 194.674 294.152 194.386 292.28H195.826C196.146 293.336 197.186 294.056 198.626 294.056C200.178 294.056 201.346 293.064 201.346 291.192V289.352C200.818 290.296 199.682 291.144 198.082 291.144C195.73 291.144 193.922 289.304 193.922 286.584ZM201.346 286.6C201.346 284.568 199.97 283.352 198.37 283.352C196.77 283.352 195.41 284.52 195.41 286.584C195.41 288.648 196.77 289.864 198.37 289.864C199.97 289.864 201.346 288.664 201.346 286.6ZM205.279 291V282.232H206.735V291H205.279ZM206.031 280.808C205.471 280.808 205.039 280.376 205.039 279.816C205.039 279.256 205.471 278.824 206.031 278.824C206.559 278.824 206.991 279.256 206.991 279.816C206.991 280.376 206.559 280.808 206.031 280.808ZM208.672 286.6C208.672 283.848 210.448 282.088 212.944 282.088C215.12 282.088 216.544 283.208 216.992 285.048H215.424C215.12 283.992 214.24 283.32 212.944 283.32C211.344 283.32 210.16 284.456 210.16 286.6C210.16 288.776 211.344 289.912 212.944 289.912C214.24 289.912 215.104 289.288 215.424 288.184H216.992C216.544 289.928 215.12 291.144 212.944 291.144C210.448 291.144 208.672 289.384 208.672 286.6ZM218.391 286.584C218.391 283.848 220.199 282.088 222.551 282.088C224.183 282.088 225.303 282.92 225.815 283.832V282.232H227.287V291H225.815V289.368C225.287 290.312 224.151 291.144 222.535 291.144C220.199 291.144 218.391 289.304 218.391 286.584ZM225.815 286.6C225.815 284.568 224.439 283.352 222.839 283.352C221.239 283.352 219.879 284.52 219.879 286.584C219.879 288.648 221.239 289.864 222.839 289.864C224.439 289.864 225.815 288.664 225.815 286.6ZM236.052 288.616C236.052 290.056 234.788 291.144 232.852 291.144C230.804 291.144 229.364 290.024 229.268 288.424H230.772C230.852 289.272 231.604 289.912 232.836 289.912C233.988 289.912 234.628 289.336 234.628 288.616C234.628 286.664 229.444 287.8 229.444 284.536C229.444 283.192 230.708 282.088 232.66 282.088C234.596 282.088 235.876 283.128 235.972 284.84H234.516C234.452 283.96 233.78 283.32 232.612 283.32C231.54 283.32 230.9 283.832 230.9 284.536C230.9 286.616 235.988 285.48 236.052 288.616ZM239.531 290.104C239.531 290.664 239.099 291.096 238.571 291.096C238.011 291.096 237.579 290.664 237.579 290.104C237.579 289.544 238.011 289.112 238.571 289.112C239.099 289.112 239.531 289.544 239.531 290.104ZM240.986 281.448L240.794 278.264H242.17L241.994 281.448H240.986ZM243.146 281.448L242.954 278.264H244.33L244.154 281.448H243.146Z" fill="white" fill-opacity="0.7"/>
<path d="M33 230H252" stroke="white" stroke-opacity="0.7" stroke-linecap="round"/>
</svg>
