<svg width="285" height="337" viewBox="0 0 285 337" fill="none" xmlns="http://www.w3.org/2000/svg">
<rect x="1" y="1" width="283" height="335" fill="#24273F" stroke="#485082" stroke-width="2"/>
<path d="M33.752 258.448L33.56 255.264H34.936L34.76 258.448H33.752ZM35.912 258.448L35.72 255.264H37.096L36.92 258.448H35.912ZM42.3759 256.848C46.0399 256.848 48.2959 258.992 48.2959 262.448C48.2959 265.904 46.0399 268 42.3759 268H38.9039V256.848H42.3759ZM40.3599 266.8H42.3759C45.2879 266.8 46.8079 265.168 46.8079 262.448C46.8079 259.728 45.2879 258.032 42.3759 258.032H40.3599V266.8ZM53.9444 260.32C52.5204 260.32 51.3364 261.264 51.1764 262.976H56.7124C56.7284 261.264 55.4484 260.32 53.9444 260.32ZM58.0404 265.296C57.5924 266.896 56.1844 268.144 54.0084 268.144C51.5124 268.144 49.6724 266.384 49.6724 263.6C49.6724 260.832 51.4484 259.088 54.0084 259.088C56.5524 259.088 58.2164 260.88 58.2164 263.28C58.2164 263.6 58.2004 263.856 58.1684 264.16H51.1604C51.2724 265.936 52.5204 266.912 54.0084 266.912C55.3204 266.912 56.1524 266.24 56.4724 265.296H58.0404ZM66.4423 265.616C66.4423 267.056 65.1783 268.144 63.2423 268.144C61.1943 268.144 59.7543 267.024 59.6583 265.424H61.1623C61.2423 266.272 61.9943 266.912 63.2263 266.912C64.3783 266.912 65.0183 266.336 65.0183 265.616C65.0183 263.664 59.8343 264.8 59.8343 261.536C59.8343 260.192 61.0983 259.088 63.0503 259.088C64.9863 259.088 66.2663 260.128 66.3623 261.84H64.9063C64.8423 260.96 64.1703 260.32 63.0023 260.32C61.9303 260.32 61.2903 260.832 61.2903 261.536C61.2903 263.616 66.3783 262.48 66.4423 265.616ZM67.9536 263.6C67.9536 260.848 69.7296 259.088 72.2256 259.088C74.4016 259.088 75.8256 260.208 76.2736 262.048H74.7056C74.4016 260.992 73.5216 260.32 72.2256 260.32C70.6256 260.32 69.4416 261.456 69.4416 263.6C69.4416 265.776 70.6256 266.912 72.2256 266.912C73.5216 266.912 74.3856 266.288 74.7056 265.184H76.2736C75.8256 266.928 74.4016 268.144 72.2256 268.144C69.7296 268.144 67.9536 266.384 67.9536 263.6ZM85.9924 259.232V268H84.5364V266.704C83.9764 267.616 82.9044 268.128 81.7364 268.128C79.7204 268.128 78.1364 266.88 78.1364 264.368V259.232H79.5764V264.176C79.5764 265.952 80.5524 266.864 82.0244 266.864C83.5284 266.864 84.5364 265.936 84.5364 264.048V259.232H85.9924ZM89.9068 260.864C90.4668 259.888 91.6348 259.088 93.1868 259.088C95.5548 259.088 97.3468 260.848 97.3468 263.584C97.3468 266.304 95.5388 268.144 93.1868 268.144C91.5868 268.144 90.4508 267.344 89.9068 266.384V268H88.4508V256.16H89.9068V260.864ZM95.8588 263.584C95.8588 261.52 94.4988 260.352 92.8828 260.352C91.2988 260.352 89.9068 261.568 89.9068 263.6C89.9068 265.664 91.2988 266.864 92.8828 266.864C94.4988 266.864 95.8588 265.648 95.8588 263.584ZM100.719 263.232V268H99.2633V259.232H100.719V260.656C101.215 259.68 102.159 259.072 103.551 259.072V260.576H103.167C101.775 260.576 100.719 261.2 100.719 263.232ZM104.688 263.584C104.688 260.848 106.496 259.088 108.848 259.088C110.48 259.088 111.6 259.92 112.112 260.832V259.232H113.584V268H112.112V266.368C111.584 267.312 110.448 268.144 108.832 268.144C106.496 268.144 104.688 266.304 104.688 263.584ZM112.112 263.6C112.112 261.568 110.736 260.352 109.136 260.352C107.536 260.352 106.176 261.52 106.176 263.584C106.176 265.648 107.536 266.864 109.136 266.864C110.736 266.864 112.112 265.664 112.112 263.6ZM128.63 263.6C128.63 266.384 126.63 268.144 124.134 268.144C121.654 268.144 119.766 266.384 119.766 263.6C119.766 260.832 121.718 259.088 124.198 259.088C126.694 259.088 128.63 260.832 128.63 263.6ZM121.254 263.6C121.254 265.824 122.614 266.864 124.134 266.864C125.654 266.864 127.142 265.824 127.142 263.6C127.142 261.392 125.686 260.352 124.182 260.352C122.646 260.352 121.254 261.392 121.254 263.6ZM132.001 260.864C132.561 259.888 133.729 259.088 135.281 259.088C137.649 259.088 139.441 260.848 139.441 263.584C139.441 266.304 137.633 268.144 135.281 268.144C133.681 268.144 132.545 267.344 132.001 266.384V268H130.545V256.16H132.001V260.864ZM137.953 263.584C137.953 261.52 136.593 260.352 134.977 260.352C133.393 260.352 132.001 261.568 132.001 263.6C132.001 265.664 133.393 266.864 134.977 266.864C136.593 266.864 137.953 265.648 137.953 263.584ZM142.813 263.232V268H141.357V259.232H142.813V260.656C143.309 259.68 144.253 259.072 145.645 259.072V260.576H145.261C143.869 260.576 142.813 261.2 142.813 263.232ZM146.782 263.584C146.782 260.848 148.59 259.088 150.942 259.088C152.574 259.088 153.694 259.92 154.206 260.832V259.232H155.678V268H154.206V266.368C153.678 267.312 152.542 268.144 150.926 268.144C148.59 268.144 146.782 266.304 146.782 263.584ZM154.206 263.6C154.206 261.568 152.83 260.352 151.23 260.352C149.63 260.352 148.27 261.52 148.27 263.584C148.27 265.648 149.63 266.864 151.23 266.864C152.83 266.864 154.206 265.664 154.206 263.6ZM164.442 265.616C164.442 267.056 163.178 268.144 161.242 268.144C159.194 268.144 157.754 267.024 157.658 265.424H159.162C159.242 266.272 159.994 266.912 161.226 266.912C162.378 266.912 163.018 266.336 163.018 265.616C163.018 263.664 157.834 264.8 157.834 261.536C157.834 260.192 159.098 259.088 161.05 259.088C162.986 259.088 164.266 260.128 164.362 261.84H162.906C162.842 260.96 162.17 260.32 161.002 260.32C159.93 260.32 159.29 260.832 159.29 261.536C159.29 263.616 164.378 262.48 164.442 265.616ZM170.763 268V256.16H172.219V268H170.763ZM174.701 268V259.232H176.157V268H174.701ZM175.453 257.808C174.893 257.808 174.461 257.376 174.461 256.816C174.461 256.256 174.893 255.824 175.453 255.824C175.981 255.824 176.413 256.256 176.413 256.816C176.413 257.376 175.981 257.808 175.453 257.808ZM178.958 265.6V260.432H177.822V259.232H178.958V257.024H180.414V259.232H182.702V260.432H180.414V265.6C180.414 266.464 180.734 266.768 181.63 266.768H182.702V268H181.39C179.838 268 178.958 267.36 178.958 265.6ZM188.194 260.32C186.77 260.32 185.586 261.264 185.426 262.976H190.962C190.978 261.264 189.698 260.32 188.194 260.32ZM192.29 265.296C191.842 266.896 190.434 268.144 188.258 268.144C185.762 268.144 183.922 266.384 183.922 263.6C183.922 260.832 185.698 259.088 188.258 259.088C190.802 259.088 192.466 260.88 192.466 263.28C192.466 263.6 192.45 263.856 192.418 264.16H185.41C185.522 265.936 186.77 266.912 188.258 266.912C189.57 266.912 190.402 266.24 190.722 265.296H192.29ZM195.844 263.232V268H194.388V259.232H195.844V260.656C196.34 259.68 197.284 259.072 198.676 259.072V260.576H198.292C196.9 260.576 195.844 261.2 195.844 263.232ZM199.813 263.584C199.813 260.848 201.621 259.088 203.973 259.088C205.605 259.088 206.725 259.92 207.237 260.832V259.232H208.709V268H207.237V266.368C206.709 267.312 205.573 268.144 203.957 268.144C201.621 268.144 199.813 266.304 199.813 263.584ZM207.237 263.6C207.237 261.568 205.861 260.352 204.261 260.352C202.661 260.352 201.301 261.52 201.301 263.584C201.301 265.648 202.661 266.864 204.261 266.864C205.861 266.864 207.237 265.664 207.237 263.6ZM202.693 257.488L206.101 255.488V256.752L202.693 258.576V257.488ZM212.626 263.232V268H211.17V259.232H212.626V260.656C213.122 259.68 214.066 259.072 215.458 259.072V260.576H215.074C213.682 260.576 212.626 261.2 212.626 263.232ZM217.138 268V259.232H218.594V268H217.138ZM217.89 257.808C217.33 257.808 216.898 257.376 216.898 256.816C216.898 256.256 217.33 255.824 217.89 255.824C218.418 255.824 218.85 256.256 218.85 256.816C218.85 257.376 218.418 257.808 217.89 257.808ZM220.532 263.584C220.532 260.848 222.34 259.088 224.692 259.088C226.324 259.088 227.444 259.92 227.956 260.832V259.232H229.428V268H227.956V266.368C227.428 267.312 226.292 268.144 224.676 268.144C222.34 268.144 220.532 266.304 220.532 263.584ZM227.956 263.6C227.956 261.568 226.58 260.352 224.98 260.352C223.38 260.352 222.02 261.52 222.02 263.584C222.02 265.648 223.38 266.864 224.98 266.864C226.58 266.864 227.956 265.664 227.956 263.6ZM238.192 265.616C238.192 267.056 236.928 268.144 234.992 268.144C232.944 268.144 231.504 267.024 231.408 265.424H232.912C232.992 266.272 233.744 266.912 234.976 266.912C236.128 266.912 236.768 266.336 236.768 265.616C236.768 263.664 231.584 264.8 231.584 261.536C231.584 260.192 232.848 259.088 234.8 259.088C236.736 259.088 238.016 260.128 238.112 261.84H236.656C236.592 260.96 235.92 260.32 234.752 260.32C233.68 260.32 233.04 260.832 233.04 261.536C233.04 263.616 238.128 262.48 238.192 265.616ZM33.688 287.584C33.688 284.848 35.496 283.088 37.864 283.088C39.24 283.088 40.504 283.792 41.112 284.8V280.16H42.584V292H41.112V290.352C40.584 291.328 39.448 292.144 37.848 292.144C35.496 292.144 33.688 290.304 33.688 287.584ZM41.112 287.6C41.112 285.568 39.736 284.352 38.136 284.352C36.536 284.352 35.176 285.52 35.176 287.584C35.176 289.648 36.536 290.864 38.136 290.864C39.736 290.864 41.112 289.664 41.112 287.6ZM48.7725 284.32C47.3485 284.32 46.1645 285.264 46.0045 286.976H51.5405C51.5565 285.264 50.2765 284.32 48.7725 284.32ZM52.8685 289.296C52.4205 290.896 51.0125 292.144 48.8365 292.144C46.3405 292.144 44.5005 290.384 44.5005 287.6C44.5005 284.832 46.2765 283.088 48.8365 283.088C51.3805 283.088 53.0445 284.88 53.0445 287.28C53.0445 287.6 53.0285 287.856 52.9965 288.16H45.9885C46.1005 289.936 47.3485 290.912 48.8365 290.912C50.1485 290.912 50.9805 290.24 51.3005 289.296H52.8685ZM59.552 289.6V284.432H58.416V283.232H59.552V281.024H61.008V283.232H63.296V284.432H61.008V289.6C61.008 290.464 61.328 290.768 62.224 290.768H63.296V292H61.984C60.432 292 59.552 291.36 59.552 289.6ZM73.3801 287.6C73.3801 290.384 71.3801 292.144 68.8841 292.144C66.4041 292.144 64.5161 290.384 64.5161 287.6C64.5161 284.832 66.4681 283.088 68.9481 283.088C71.4441 283.088 73.3801 284.832 73.3801 287.6ZM66.0041 287.6C66.0041 289.824 67.3641 290.864 68.8841 290.864C70.4041 290.864 71.8921 289.824 71.8921 287.6C71.8921 285.392 70.4361 284.352 68.9321 284.352C67.3961 284.352 66.0041 285.392 66.0041 287.6ZM74.7505 287.584C74.7505 284.848 76.5585 283.088 78.9265 283.088C80.3025 283.088 81.5665 283.792 82.1745 284.8V280.16H83.6465V292H82.1745V290.352C81.6465 291.328 80.5105 292.144 78.9105 292.144C76.5585 292.144 74.7505 290.304 74.7505 287.584ZM82.1745 287.6C82.1745 285.568 80.7985 284.352 79.1985 284.352C77.5985 284.352 76.2385 285.52 76.2385 287.584C76.2385 289.648 77.5985 290.864 79.1985 290.864C80.7985 290.864 82.1745 289.664 82.1745 287.6ZM94.427 287.6C94.427 290.384 92.427 292.144 89.931 292.144C87.451 292.144 85.563 290.384 85.563 287.6C85.563 284.832 87.515 283.088 89.995 283.088C92.491 283.088 94.427 284.832 94.427 287.6ZM87.051 287.6C87.051 289.824 88.411 290.864 89.931 290.864C91.451 290.864 92.939 289.824 92.939 287.6C92.939 285.392 91.483 284.352 89.979 284.352C88.443 284.352 87.051 285.392 87.051 287.6ZM108.927 287.6C108.927 290.384 106.927 292.144 104.431 292.144C101.951 292.144 100.063 290.384 100.063 287.6C100.063 284.832 102.015 283.088 104.495 283.088C106.991 283.088 108.927 284.832 108.927 287.6ZM101.551 287.6C101.551 289.824 102.911 290.864 104.431 290.864C105.951 290.864 107.439 289.824 107.439 287.6C107.439 285.392 105.983 284.352 104.479 284.352C102.943 284.352 101.551 285.392 101.551 287.6ZM127.763 292V287.04C127.763 285.248 126.803 284.336 125.363 284.336C123.891 284.336 122.883 285.28 122.883 287.168V292H121.443V287.04C121.443 285.248 120.483 284.336 119.043 284.336C117.571 284.336 116.563 285.28 116.563 287.168V292H115.107V283.232H116.563V284.496C117.139 283.568 118.179 283.072 119.331 283.072C120.771 283.072 121.971 283.712 122.547 285.024C123.059 283.76 124.307 283.072 125.651 283.072C127.651 283.072 129.203 284.32 129.203 286.832V292H127.763ZM139.367 283.232V292H137.911V290.704C137.351 291.616 136.279 292.128 135.111 292.128C133.095 292.128 131.511 290.88 131.511 288.368V283.232H132.951V288.176C132.951 289.952 133.927 290.864 135.399 290.864C136.903 290.864 137.911 289.936 137.911 288.048V283.232H139.367ZM148.242 292V287.04C148.242 285.248 147.266 284.336 145.794 284.336C144.306 284.336 143.282 285.264 143.282 287.152V292H141.826V283.232H143.282V284.48C143.858 283.568 144.914 283.072 146.098 283.072C148.13 283.072 149.682 284.32 149.682 286.832V292H148.242ZM151.516 287.584C151.516 284.848 153.324 283.088 155.692 283.088C157.068 283.088 158.332 283.792 158.94 284.8V280.16H160.412V292H158.94V290.352C158.412 291.328 157.276 292.144 155.676 292.144C153.324 292.144 151.516 290.304 151.516 287.584ZM158.94 287.6C158.94 285.568 157.564 284.352 155.964 284.352C154.364 284.352 153.004 285.52 153.004 287.584C153.004 289.648 154.364 290.864 155.964 290.864C157.564 290.864 158.94 289.664 158.94 287.6ZM171.193 287.6C171.193 290.384 169.193 292.144 166.697 292.144C164.217 292.144 162.329 290.384 162.329 287.6C162.329 284.832 164.281 283.088 166.761 283.088C169.257 283.088 171.193 284.832 171.193 287.6ZM163.817 287.6C163.817 289.824 165.177 290.864 166.697 290.864C168.217 290.864 169.705 289.824 169.705 287.6C169.705 285.392 168.249 284.352 166.745 284.352C165.209 284.352 163.817 285.392 163.817 287.6ZM174.531 291.104C174.531 291.664 174.099 292.096 173.571 292.096C173.011 292.096 172.579 291.664 172.579 291.104C172.579 290.544 173.011 290.112 173.571 290.112C174.099 290.112 174.531 290.544 174.531 291.104ZM175.986 282.448L175.794 279.264H177.17L176.994 282.448H175.986ZM178.146 282.448L177.954 279.264H179.33L179.154 282.448H178.146Z" fill="white" fill-opacity="0.7"/>
<path d="M37.554 52.2691C34.702 56.1101 33 60.8481 33 66C33 78.696 43.304 89 56 89" stroke="white" stroke-width="3" stroke-linecap="round" stroke-linejoin="round"/>
<path d="M78.9996 66C78.9996 53.304 68.6956 43 55.9996 43C52.5036 43 49.2146 43.782 46.2476 45.162" stroke="white" stroke-width="3" stroke-linecap="round" stroke-linejoin="round"/>
<path d="M67.2468 80.581V80.0089C67.2468 78.1562 68.3911 77.1754 69.5354 76.3853C70.6525 75.6224 71.7692 74.6416 71.7692 72.8434C71.7692 70.3369 69.7534 68.3206 67.2468 68.3206C64.7403 68.3206 62.7241 70.3369 62.7241 72.8434" stroke="white" stroke-width="3" stroke-linecap="round" stroke-linejoin="round"/>
<path d="M67.2345 87.0926H67.259" stroke="white" stroke-width="3" stroke-linecap="round" stroke-linejoin="round"/>
<path d="M34.8 129.32H37.536V143.792H43.176V146H34.8V129.32ZM45.4641 146V132.776H48.2001V146H45.4641ZM46.8561 131.024C45.8721 131.024 45.1041 130.256 45.1041 129.272C45.1041 128.288 45.8721 127.52 46.8561 127.52C47.8161 127.52 48.5841 128.288 48.5841 129.272C48.5841 130.256 47.8161 131.024 46.8561 131.024ZM52.2242 142.328V135.008H50.6642V132.776H52.2242V129.488H54.9842V132.776H58.2002V135.008H54.9842V142.328C54.9842 143.312 55.3682 143.72 56.5202 143.72H58.2002V146H56.0402C53.6882 146 52.2242 145.016 52.2242 142.328ZM66.2899 134.864C64.4419 134.864 62.9539 136.112 62.6659 138.2H69.9859C69.9379 136.16 68.3299 134.864 66.2899 134.864ZM72.4819 142.064C71.7379 144.368 69.6499 146.216 66.4099 146.216C62.6179 146.216 59.8099 143.528 59.8099 139.376C59.8099 135.224 62.4979 132.56 66.4099 132.56C70.1779 132.56 72.8419 135.176 72.8419 139.064C72.8419 139.52 72.8179 139.952 72.7459 140.408H62.6419C62.8339 142.592 64.3939 143.912 66.4099 143.912C68.0899 143.912 69.0259 143.096 69.5299 142.064H72.4819ZM78.2704 139.04V146H75.5344V132.776H78.2704V134.696C79.0384 133.376 80.3584 132.56 82.2304 132.56V135.392H81.5344C79.5184 135.392 78.2704 136.232 78.2704 139.04ZM83.8333 139.328C83.8333 135.248 86.5933 132.56 90.0733 132.56C92.3053 132.56 93.8413 133.616 94.6573 134.696V132.776H97.4173V146H94.6573V144.032C93.8173 145.16 92.2333 146.216 90.0253 146.216C86.5933 146.216 83.8333 143.408 83.8333 139.328ZM94.6573 139.376C94.6573 136.544 92.7133 134.936 90.6493 134.936C88.6093 134.936 86.6413 136.472 86.6413 139.328C86.6413 142.184 88.6093 143.84 90.6493 143.84C92.7133 143.84 94.6573 142.232 94.6573 139.376ZM101.443 142.328V135.008H99.8829V132.776H101.443V129.488H104.203V132.776H107.419V135.008H104.203V142.328C104.203 143.312 104.587 143.72 105.739 143.72H107.419V146H105.259C102.907 146 101.443 145.016 101.443 142.328ZM121.917 132.776V146H119.181V144.416C118.317 145.544 116.829 146.192 115.269 146.192C112.173 146.192 109.821 144.248 109.821 140.552V132.776H112.533V140.144C112.533 142.568 113.853 143.816 115.845 143.816C117.861 143.816 119.181 142.568 119.181 140.144V132.776H121.917ZM128.263 139.04V146H125.527V132.776H128.263V134.696C129.031 133.376 130.351 132.56 132.223 132.56V135.392H131.527C129.511 135.392 128.263 136.232 128.263 139.04ZM133.826 139.328C133.826 135.248 136.586 132.56 140.066 132.56C142.298 132.56 143.834 133.616 144.65 134.696V132.776H147.41V146H144.65V144.032C143.81 145.16 142.226 146.216 140.018 146.216C136.586 146.216 133.826 143.408 133.826 139.328ZM144.65 139.376C144.65 136.544 142.706 134.936 140.642 134.936C138.602 134.936 136.634 136.472 136.634 139.328C136.634 142.184 138.602 143.84 140.642 143.84C142.706 143.84 144.65 142.232 144.65 139.376ZM34.8 182V165.32H37.752L43.608 178.4L49.44 165.32H52.368V182H49.632V170.576L44.544 182H42.648L37.536 170.576V182H34.8ZM67.9401 168.776V182H65.2041V180.416C64.3401 181.544 62.8521 182.192 61.2921 182.192C58.1961 182.192 55.8441 180.248 55.8441 176.552V168.776H58.5561V176.144C58.5561 178.568 59.8761 179.816 61.8681 179.816C63.8841 179.816 65.2041 178.568 65.2041 176.144V168.776H67.9401ZM80.934 182V174.608C80.934 172.184 79.614 170.936 77.622 170.936C75.606 170.936 74.286 172.184 74.286 174.608V182H71.55V168.776H74.286V170.288C75.174 169.208 76.638 168.56 78.222 168.56C81.318 168.56 83.646 170.504 83.646 174.2V182H80.934ZM86.2239 175.328C86.2239 171.248 88.9839 168.56 92.4879 168.56C94.2159 168.56 96.0399 169.376 97.0479 170.624V164.24H99.8079V182H97.0479V180.008C96.2079 181.208 94.6239 182.216 92.4639 182.216C88.9839 182.216 86.2239 179.408 86.2239 175.328ZM97.0479 175.376C97.0479 172.544 95.1039 170.936 93.0399 170.936C90.9999 170.936 89.0319 172.472 89.0319 175.328C89.0319 178.184 90.9999 179.84 93.0399 179.84C95.1039 179.84 97.0479 178.232 97.0479 175.376ZM103.402 182V168.776H106.138V182H103.402ZM104.794 167.024C103.81 167.024 103.042 166.256 103.042 165.272C103.042 164.288 103.81 163.52 104.794 163.52C105.754 163.52 106.522 164.288 106.522 165.272C106.522 166.256 105.754 167.024 104.794 167.024ZM108.818 175.328C108.818 171.248 111.578 168.56 115.058 168.56C117.29 168.56 118.826 169.616 119.642 170.696V168.776H122.402V182H119.642V180.032C118.802 181.16 117.218 182.216 115.01 182.216C111.578 182.216 108.818 179.408 108.818 175.328ZM119.642 175.376C119.642 172.544 117.698 170.936 115.634 170.936C113.594 170.936 111.626 172.472 111.626 175.328C111.626 178.184 113.594 179.84 115.634 179.84C117.698 179.84 119.642 178.232 119.642 175.376ZM125.995 182V164.24H128.731V182H125.995Z" fill="white"/>
<path d="M33 221H252" stroke="white" stroke-opacity="0.7" stroke-linecap="round"/>
</svg>
