<svg width="285" height="337" viewBox="0 0 285 337" fill="none" xmlns="http://www.w3.org/2000/svg">
<rect x="1" y="1" width="283" height="335" fill="#24273F" stroke="#485082" stroke-width="2"/>
<path d="M33.752 257.448L33.56 254.264H34.936L34.76 257.448H33.752ZM35.912 257.448L35.72 254.264H37.096L36.92 257.448H35.912ZM44.9039 255.832V257.032H40.3599V260.76H44.4239V261.96H40.3599V265.8H44.9039V267H38.9039V255.832H44.9039ZM51.683 267L49.603 263.736L47.603 267H46.083L48.915 262.648L46.083 258.232H47.731L49.811 261.48L51.795 258.232H53.315L50.499 262.568L53.331 267H51.683ZM56.2193 259.848C56.7473 258.92 57.8993 258.088 59.4993 258.088C61.8513 258.088 63.6593 259.848 63.6593 262.584C63.6593 265.304 61.8513 267.144 59.4993 267.144C57.8993 267.144 56.7633 266.28 56.2193 265.384V271.16H54.7633V258.232H56.2193V259.848ZM62.1713 262.584C62.1713 260.52 60.8113 259.352 59.1953 259.352C57.6113 259.352 56.2193 260.568 56.2193 262.6C56.2193 264.664 57.6113 265.864 59.1953 265.864C60.8113 265.864 62.1713 264.648 62.1713 262.584ZM65.5758 267V255.16H67.0318V267H65.5758ZM77.8333 262.6C77.8333 265.384 75.8333 267.144 73.3373 267.144C70.8573 267.144 68.9693 265.384 68.9693 262.6C68.9693 259.832 70.9213 258.088 73.4013 258.088C75.8973 258.088 77.8333 259.832 77.8333 262.6ZM70.4573 262.6C70.4573 264.824 71.8173 265.864 73.3373 265.864C74.8573 265.864 76.3453 264.824 76.3453 262.6C76.3453 260.392 74.8893 259.352 73.3853 259.352C71.8493 259.352 70.4573 260.392 70.4573 262.6ZM81.2036 262.232V267H79.7476V258.232H81.2036V259.656C81.6996 258.68 82.6436 258.072 84.0356 258.072V259.576H83.6516C82.2596 259.576 81.2036 260.2 81.2036 262.232ZM89.4444 259.32C88.0204 259.32 86.8364 260.264 86.6764 261.976H92.2124C92.2284 260.264 90.9484 259.32 89.4444 259.32ZM93.5404 264.296C93.0924 265.896 91.6844 267.144 89.5084 267.144C87.0124 267.144 85.1724 265.384 85.1724 262.6C85.1724 259.832 86.9484 258.088 89.5084 258.088C92.0524 258.088 93.7164 259.88 93.7164 262.28C93.7164 262.6 93.7004 262.856 93.6684 263.16H86.6604C86.7724 264.936 88.0204 265.912 89.5084 265.912C90.8204 265.912 91.6524 265.24 91.9724 264.296H93.5404ZM103.632 259.32C102.208 259.32 101.024 260.264 100.864 261.976H106.4C106.416 260.264 105.136 259.32 103.632 259.32ZM107.728 264.296C107.28 265.896 105.872 267.144 103.696 267.144C101.2 267.144 99.3599 265.384 99.3599 262.6C99.3599 259.832 101.136 258.088 103.696 258.088C106.24 258.088 107.904 259.88 107.904 262.28C107.904 262.6 107.888 262.856 107.856 263.16H100.848C100.96 264.936 102.208 265.912 103.696 265.912C105.008 265.912 105.84 265.24 106.16 264.296H107.728ZM108.786 258.232H110.354L113.09 265.656L115.81 258.232H117.362L113.922 267H112.226L108.786 258.232ZM122.523 259.32C121.099 259.32 119.914 260.264 119.755 261.976H125.291C125.307 260.264 124.027 259.32 122.523 259.32ZM126.619 264.296C126.171 265.896 124.763 267.144 122.587 267.144C120.091 267.144 118.251 265.384 118.251 262.6C118.251 259.832 120.027 258.088 122.587 258.088C125.131 258.088 126.795 259.88 126.795 262.28C126.795 262.6 126.779 262.856 126.747 263.16H119.739C119.851 264.936 121.099 265.912 122.587 265.912C123.899 265.912 124.731 265.24 125.051 264.296H126.619ZM135.132 267V262.04C135.132 260.248 134.156 259.336 132.684 259.336C131.196 259.336 130.172 260.264 130.172 262.152V267H128.716V258.232H130.172V259.48C130.748 258.568 131.804 258.072 132.988 258.072C135.02 258.072 136.572 259.32 136.572 261.832V267H135.132ZM139.271 264.6V259.432H138.135V258.232H139.271V256.024H140.727V258.232H143.015V259.432H140.727V264.6C140.727 265.464 141.047 265.768 141.943 265.768H143.015V267H141.703C140.151 267 139.271 266.36 139.271 264.6ZM153.099 262.6C153.099 265.384 151.099 267.144 148.603 267.144C146.123 267.144 144.235 265.384 144.235 262.6C144.235 259.832 146.187 258.088 148.667 258.088C151.163 258.088 153.099 259.832 153.099 262.6ZM145.723 262.6C145.723 264.824 147.083 265.864 148.603 265.864C150.123 265.864 151.611 264.824 151.611 262.6C151.611 260.392 150.155 259.352 148.651 259.352C147.115 259.352 145.723 260.392 145.723 262.6ZM161.317 264.616C161.317 266.056 160.053 267.144 158.117 267.144C156.069 267.144 154.629 266.024 154.533 264.424H156.037C156.117 265.272 156.869 265.912 158.101 265.912C159.253 265.912 159.893 265.336 159.893 264.616C159.893 262.664 154.709 263.8 154.709 260.536C154.709 259.192 155.973 258.088 157.925 258.088C159.861 258.088 161.141 259.128 161.237 260.84H159.781C159.717 259.96 159.045 259.32 157.877 259.32C156.805 259.32 156.165 259.832 156.165 260.536C156.165 262.616 161.253 261.48 161.317 264.616ZM171.366 259.32C169.942 259.32 168.758 260.264 168.598 261.976H174.134C174.15 260.264 172.87 259.32 171.366 259.32ZM175.462 264.296C175.014 265.896 173.606 267.144 171.43 267.144C168.934 267.144 167.094 265.384 167.094 262.6C167.094 259.832 168.87 258.088 171.43 258.088C173.974 258.088 175.638 259.88 175.638 262.28C175.638 262.6 175.622 262.856 175.59 263.16H168.582C168.694 264.936 169.942 265.912 171.43 265.912C172.742 265.912 173.574 265.24 173.894 264.296H175.462ZM181.826 267V255.16H183.282V267H181.826ZM185.763 267V258.232H187.219V267H185.763ZM184.643 256.488L188.051 254.488V255.752L184.643 257.576V256.488ZM189.157 262.584C189.157 259.848 190.965 258.088 193.333 258.088C194.709 258.088 195.973 258.792 196.581 259.8V255.16H198.053V267H196.581V265.352C196.053 266.328 194.917 267.144 193.317 267.144C190.965 267.144 189.157 265.304 189.157 262.584ZM196.581 262.6C196.581 260.568 195.205 259.352 193.605 259.352C192.005 259.352 190.645 260.52 190.645 262.584C190.645 264.648 192.005 265.864 193.605 265.864C195.205 265.864 196.581 264.664 196.581 262.6ZM204.241 259.32C202.817 259.32 201.633 260.264 201.473 261.976H207.009C207.025 260.264 205.745 259.32 204.241 259.32ZM208.337 264.296C207.889 265.896 206.481 267.144 204.305 267.144C201.809 267.144 199.969 265.384 199.969 262.6C199.969 259.832 201.745 258.088 204.305 258.088C206.849 258.088 208.513 259.88 208.513 262.28C208.513 262.6 208.497 262.856 208.465 263.16H201.457C201.569 264.936 202.817 265.912 204.305 265.912C205.617 265.912 206.449 265.24 206.769 264.296H208.337ZM211.891 262.232V267H210.435V258.232H211.891V259.656C212.387 258.68 213.331 258.072 214.723 258.072V259.576H214.339C212.947 259.576 211.891 260.2 211.891 262.232ZM220.132 259.32C218.708 259.32 217.524 260.264 217.364 261.976H222.9C222.916 260.264 221.636 259.32 220.132 259.32ZM224.228 264.296C223.78 265.896 222.372 267.144 220.196 267.144C217.7 267.144 215.86 265.384 215.86 262.6C215.86 259.832 217.636 258.088 220.196 258.088C222.74 258.088 224.404 259.88 224.404 262.28C224.404 262.6 224.388 262.856 224.356 263.16H217.348C217.46 264.936 218.708 265.912 220.196 265.912C221.508 265.912 222.34 265.24 222.66 264.296H224.228ZM232.63 264.616C232.63 266.056 231.366 267.144 229.43 267.144C227.382 267.144 225.942 266.024 225.846 264.424H227.35C227.43 265.272 228.182 265.912 229.414 265.912C230.566 265.912 231.206 265.336 231.206 264.616C231.206 262.664 226.022 263.8 226.022 260.536C226.022 259.192 227.286 258.088 229.238 258.088C231.174 258.088 232.454 259.128 232.55 260.84H231.094C231.03 259.96 230.358 259.32 229.19 259.32C228.118 259.32 227.478 259.832 227.478 260.536C227.478 262.616 232.566 261.48 232.63 264.616ZM34.232 291V279.16H35.688V283.496C36.264 282.568 37.352 282.072 38.584 282.072C40.536 282.072 42.088 283.32 42.088 285.832V291H40.648V286.04C40.648 284.248 39.672 283.336 38.2 283.336C36.712 283.336 35.688 284.264 35.688 286.152V291H34.232ZM44.4664 291V282.232H45.9224V291H44.4664ZM45.2184 280.808C44.6584 280.808 44.2264 280.376 44.2264 279.816C44.2264 279.256 44.6584 278.824 45.2184 278.824C45.7464 278.824 46.1784 279.256 46.1784 279.816C46.1784 280.376 45.7464 280.808 45.2184 280.808ZM54.7079 288.616C54.7079 290.056 53.4439 291.144 51.5079 291.144C49.4599 291.144 48.0199 290.024 47.9239 288.424H49.4279C49.5079 289.272 50.2599 289.912 51.4919 289.912C52.6439 289.912 53.2839 289.336 53.2839 288.616C53.2839 286.664 48.0999 287.8 48.0999 284.536C48.0999 283.192 49.3639 282.088 51.3159 282.088C53.2519 282.088 54.5319 283.128 54.6279 284.84H53.1719C53.1079 283.96 52.4359 283.32 51.2679 283.32C50.1959 283.32 49.5559 283.832 49.5559 284.536C49.5559 286.616 54.6439 285.48 54.7079 288.616ZM57.0833 288.6V283.432H55.9473V282.232H57.0833V280.024H58.5393V282.232H60.8273V283.432H58.5393V288.6C58.5393 289.464 58.8593 289.768 59.7552 289.768H60.8273V291H59.5153C57.9633 291 57.0833 290.36 57.0833 288.6ZM70.9114 286.6C70.9114 289.384 68.9114 291.144 66.4154 291.144C63.9354 291.144 62.0474 289.384 62.0474 286.6C62.0474 283.832 63.9994 282.088 66.4794 282.088C68.9754 282.088 70.9114 283.832 70.9114 286.6ZM63.5354 286.6C63.5354 288.824 64.8954 289.864 66.4154 289.864C67.9354 289.864 69.4234 288.824 69.4234 286.6C69.4234 284.392 67.9674 283.352 66.4634 283.352C64.9274 283.352 63.5354 284.392 63.5354 286.6ZM64.6394 280.376L68.0474 278.376V279.64L64.6394 281.464V280.376ZM74.2818 286.232V291H72.8258V282.232H74.2818V283.656C74.7778 282.68 75.7218 282.072 77.1138 282.072V283.576H76.7298C75.3378 283.576 74.2818 284.2 74.2818 286.232ZM78.7945 291V282.232H80.2505V291H78.7945ZM79.5465 280.808C78.9865 280.808 78.5545 280.376 78.5545 279.816C78.5545 279.256 78.9865 278.824 79.5465 278.824C80.0745 278.824 80.5065 279.256 80.5065 279.816C80.5065 280.376 80.0745 280.808 79.5465 280.808ZM82.188 286.6C82.188 283.848 83.964 282.088 86.46 282.088C88.636 282.088 90.06 283.208 90.508 285.048H88.94C88.636 283.992 87.756 283.32 86.46 283.32C84.86 283.32 83.676 284.456 83.676 286.6C83.676 288.776 84.86 289.912 86.46 289.912C87.756 289.912 88.62 289.288 88.94 288.184H90.508C90.06 289.928 88.636 291.144 86.46 291.144C83.964 291.144 82.188 289.384 82.188 286.6ZM100.771 286.6C100.771 289.384 98.7708 291.144 96.2748 291.144C93.7948 291.144 91.9068 289.384 91.9068 286.6C91.9068 283.832 93.8588 282.088 96.3388 282.088C98.8348 282.088 100.771 283.832 100.771 286.6ZM93.3948 286.6C93.3948 288.824 94.7548 289.864 96.2748 289.864C97.7948 289.864 99.2828 288.824 99.2828 286.6C99.2828 284.392 97.8268 283.352 96.3228 283.352C94.7868 283.352 93.3948 284.392 93.3948 286.6ZM108.989 288.616C108.989 290.056 107.725 291.144 105.789 291.144C103.741 291.144 102.301 290.024 102.205 288.424H103.709C103.789 289.272 104.541 289.912 105.773 289.912C106.925 289.912 107.565 289.336 107.565 288.616C107.565 286.664 102.381 287.8 102.381 284.536C102.381 283.192 103.645 282.088 105.597 282.088C107.533 282.088 108.813 283.128 108.909 284.84H107.453C107.389 283.96 106.717 283.32 105.549 283.32C104.477 283.32 103.837 283.832 103.837 284.536C103.837 286.616 108.925 285.48 108.989 288.616ZM112.469 290.104C112.469 290.664 112.037 291.096 111.509 291.096C110.949 291.096 110.517 290.664 110.517 290.104C110.517 289.544 110.949 289.112 111.509 289.112C112.037 289.112 112.469 289.544 112.469 290.104ZM113.924 281.448L113.732 278.264H115.108L114.932 281.448H113.924ZM116.084 281.448L115.892 278.264H117.268L117.092 281.448H116.084Z" fill="white" fill-opacity="0.7"/>
<path d="M41.04 54.94C38.5 58.3 37 62.48 37 67C37 78.04 45.96 87 57 87C68.04 87 77 78.04 77 67C77 55.96 68.04 47 57 47" stroke="white" stroke-width="1.5" stroke-linecap="round" stroke-linejoin="round"/>
<path d="M43 67C43 74.74 49.26 81 57 81C64.74 81 71 74.74 71 67C71 59.26 64.74 53 57 53" stroke="white" stroke-width="1.5" stroke-linecap="round" stroke-linejoin="round"/>
<path d="M57 75C61.42 75 65 71.42 65 67C65 62.58 61.42 59 57 59" stroke="white" stroke-width="1.5" stroke-linecap="round" stroke-linejoin="round"/>
<path d="M45.384 140V132.704H37.536V140H34.8V123.32H37.536V130.472H45.384V123.32H48.12V140H45.384ZM51.7219 140V126.776H54.4579V140H51.7219ZM53.1139 125.024C52.1299 125.024 51.3619 124.256 51.3619 123.272C51.3619 122.288 52.1299 121.52 53.1139 121.52C54.0739 121.52 54.8419 122.288 54.8419 123.272C54.8419 124.256 54.0739 125.024 53.1139 125.024ZM67.914 136.304C67.914 138.536 65.97 140.216 62.85 140.216C59.682 140.216 57.45 138.344 57.33 135.944H60.162C60.258 137.024 61.29 137.912 62.802 137.912C64.386 137.912 65.226 137.24 65.226 136.328C65.226 133.736 57.546 135.224 57.546 130.376C57.546 128.264 59.514 126.56 62.634 126.56C65.634 126.56 67.602 128.168 67.746 130.808H65.01C64.914 129.656 64.026 128.864 62.538 128.864C61.074 128.864 60.306 129.464 60.306 130.352C60.306 133.016 67.77 131.528 67.914 136.304ZM71.3023 136.328V129.008H69.7423V126.776H71.3023V123.488H74.0623V126.776H77.2783V129.008H74.0623V136.328C74.0623 137.312 74.4463 137.72 75.5983 137.72H77.2783V140H75.1183C72.7663 140 71.3023 139.016 71.3023 136.328ZM92.4 133.376C92.4 137.528 89.328 140.216 85.536 140.216C81.768 140.216 78.912 137.528 78.912 133.376C78.912 129.224 81.888 126.56 85.656 126.56C89.424 126.56 92.4 129.224 92.4 133.376ZM81.696 133.376C81.696 136.376 83.472 137.84 85.536 137.84C87.576 137.84 89.592 136.376 89.592 133.376C89.592 130.376 87.648 128.936 85.608 128.936C83.544 128.936 81.696 130.376 81.696 133.376ZM82.824 123.608L88.128 120.68V123.008L82.824 125.624V123.608ZM97.8407 133.04V140H95.1047V126.776H97.8407V128.696C98.6087 127.376 99.9287 126.56 101.801 126.56V129.392H101.105C99.0887 129.392 97.8407 130.232 97.8407 133.04ZM104.316 140V126.776H107.052V140H104.316ZM105.708 125.024C104.724 125.024 103.956 124.256 103.956 123.272C103.956 122.288 104.724 121.52 105.708 121.52C106.668 121.52 107.436 122.288 107.436 123.272C107.436 124.256 106.668 125.024 105.708 125.024ZM109.732 133.328C109.732 129.248 112.492 126.56 115.972 126.56C118.204 126.56 119.74 127.616 120.556 128.696V126.776H123.316V140H120.556V138.032C119.716 139.16 118.132 140.216 115.924 140.216C112.492 140.216 109.732 137.408 109.732 133.328ZM120.556 133.376C120.556 130.544 118.612 128.936 116.548 128.936C114.508 128.936 112.54 130.472 112.54 133.328C112.54 136.184 114.508 137.84 116.548 137.84C118.612 137.84 120.556 136.232 120.556 133.376ZM34.8 176V159.32H37.752L43.608 172.4L49.44 159.32H52.368V176H49.632V164.576L44.544 176H42.648L37.536 164.576V176H34.8ZM67.9401 162.776V176H65.2041V174.416C64.3401 175.544 62.8521 176.192 61.2921 176.192C58.1961 176.192 55.8441 174.248 55.8441 170.552V162.776H58.5561V170.144C58.5561 172.568 59.8761 173.816 61.8681 173.816C63.8841 173.816 65.2041 172.568 65.2041 170.144V162.776H67.9401ZM80.934 176V168.608C80.934 166.184 79.614 164.936 77.622 164.936C75.606 164.936 74.286 166.184 74.286 168.608V176H71.55V162.776H74.286V164.288C75.174 163.208 76.638 162.56 78.222 162.56C81.318 162.56 83.646 164.504 83.646 168.2V176H80.934ZM86.2239 169.328C86.2239 165.248 88.9839 162.56 92.4879 162.56C94.2159 162.56 96.0399 163.376 97.0479 164.624V158.24H99.8079V176H97.0479V174.008C96.2079 175.208 94.6239 176.216 92.4639 176.216C88.9839 176.216 86.2239 173.408 86.2239 169.328ZM97.0479 169.376C97.0479 166.544 95.1039 164.936 93.0399 164.936C90.9999 164.936 89.0319 166.472 89.0319 169.328C89.0319 172.184 90.9999 173.84 93.0399 173.84C95.1039 173.84 97.0479 172.232 97.0479 169.376ZM103.402 176V162.776H106.138V176H103.402ZM104.794 161.024C103.81 161.024 103.042 160.256 103.042 159.272C103.042 158.288 103.81 157.52 104.794 157.52C105.754 157.52 106.522 158.288 106.522 159.272C106.522 160.256 105.754 161.024 104.794 161.024ZM108.818 169.328C108.818 165.248 111.578 162.56 115.058 162.56C117.29 162.56 118.826 163.616 119.642 164.696V162.776H122.402V176H119.642V174.032C118.802 175.16 117.218 176.216 115.01 176.216C111.578 176.216 108.818 173.408 108.818 169.328ZM119.642 169.376C119.642 166.544 117.698 164.936 115.634 164.936C113.594 164.936 111.626 166.472 111.626 169.328C111.626 172.184 113.594 173.84 115.634 173.84C117.698 173.84 119.642 172.232 119.642 169.376ZM125.995 176V158.24H128.731V176H125.995Z" fill="white"/>
<path d="M33 230H252" stroke="white" stroke-opacity="0.7" stroke-linecap="round"/>
</svg>
