<svg width="285" height="337" viewBox="0 0 285 337" fill="none" xmlns="http://www.w3.org/2000/svg">
<rect x="1" y="1" width="283" height="335" fill="#24273F" stroke="#485082" stroke-width="2"/>
<path d="M33.752 258.448L33.56 255.264H34.936L34.76 258.448H33.752ZM35.912 258.448L35.72 255.264H37.096L36.92 258.448H35.912ZM44.9039 256.832V258.032H40.3599V261.76H44.4239V262.96H40.3599V266.8H44.9039V268H38.9039V256.832H44.9039ZM51.683 268L49.603 264.736L47.603 268H46.083L48.915 263.648L46.083 259.232H47.731L49.811 262.48L51.795 259.232H53.315L50.499 263.568L53.331 268H51.683ZM56.2193 260.848C56.7473 259.92 57.8993 259.088 59.4993 259.088C61.8513 259.088 63.6593 260.848 63.6593 263.584C63.6593 266.304 61.8513 268.144 59.4993 268.144C57.8993 268.144 56.7633 267.28 56.2193 266.384V272.16H54.7633V259.232H56.2193V260.848ZM62.1713 263.584C62.1713 261.52 60.8113 260.352 59.1953 260.352C57.6113 260.352 56.2193 261.568 56.2193 263.6C56.2193 265.664 57.6113 266.864 59.1953 266.864C60.8113 266.864 62.1713 265.648 62.1713 263.584ZM65.5758 268V256.16H67.0318V268H65.5758ZM77.8333 263.6C77.8333 266.384 75.8333 268.144 73.3373 268.144C70.8573 268.144 68.9693 266.384 68.9693 263.6C68.9693 260.832 70.9213 259.088 73.4013 259.088C75.8973 259.088 77.8333 260.832 77.8333 263.6ZM70.4573 263.6C70.4573 265.824 71.8173 266.864 73.3373 266.864C74.8573 266.864 76.3453 265.824 76.3453 263.6C76.3453 261.392 74.8893 260.352 73.3853 260.352C71.8493 260.352 70.4573 261.392 70.4573 263.6ZM81.2036 263.232V268H79.7476V259.232H81.2036V260.656C81.6996 259.68 82.6436 259.072 84.0356 259.072V260.576H83.6516C82.2596 260.576 81.2036 261.2 81.2036 263.232ZM89.4444 260.32C88.0204 260.32 86.8364 261.264 86.6764 262.976H92.2124C92.2284 261.264 90.9484 260.32 89.4444 260.32ZM93.5404 265.296C93.0924 266.896 91.6844 268.144 89.5084 268.144C87.0124 268.144 85.1724 266.384 85.1724 263.6C85.1724 260.832 86.9484 259.088 89.5084 259.088C92.0524 259.088 93.7164 260.88 93.7164 263.28C93.7164 263.6 93.7004 263.856 93.6684 264.16H86.6604C86.7724 265.936 88.0204 266.912 89.5084 266.912C90.8204 266.912 91.6524 266.24 91.9724 265.296H93.5404ZM108.224 263.6C108.224 266.384 106.224 268.144 103.728 268.144C101.248 268.144 99.3599 266.384 99.3599 263.6C99.3599 260.832 101.312 259.088 103.792 259.088C106.288 259.088 108.224 260.832 108.224 263.6ZM100.848 263.6C100.848 265.824 102.208 266.864 103.728 266.864C105.248 266.864 106.736 265.824 106.736 263.6C106.736 261.392 105.28 260.352 103.776 260.352C102.24 260.352 100.848 261.392 100.848 263.6ZM116.442 265.616C116.442 267.056 115.178 268.144 113.242 268.144C111.194 268.144 109.754 267.024 109.658 265.424H111.162C111.242 266.272 111.994 266.912 113.226 266.912C114.378 266.912 115.018 266.336 115.018 265.616C115.018 263.664 109.834 264.8 109.834 261.536C109.834 260.192 111.098 259.088 113.05 259.088C114.986 259.088 116.266 260.128 116.362 261.84H114.906C114.842 260.96 114.17 260.32 113.002 260.32C111.93 260.32 111.29 260.832 111.29 261.536C111.29 263.616 116.378 262.48 116.442 265.616ZM135.419 268V263.04C135.419 261.248 134.459 260.336 133.019 260.336C131.547 260.336 130.539 261.28 130.539 263.168V268H129.099V263.04C129.099 261.248 128.139 260.336 126.699 260.336C125.227 260.336 124.219 261.28 124.219 263.168V268H122.763V259.232H124.219V260.496C124.795 259.568 125.835 259.072 126.987 259.072C128.427 259.072 129.627 259.712 130.203 261.024C130.715 259.76 131.963 259.072 133.307 259.072C135.307 259.072 136.859 260.32 136.859 262.832V268H135.419ZM139.248 268V259.232H140.704V268H139.248ZM140 257.808C139.44 257.808 139.008 257.376 139.008 256.816C139.008 256.256 139.44 255.824 140 255.824C140.528 255.824 140.96 256.256 140.96 256.816C140.96 257.376 140.528 257.808 140 257.808ZM143.505 265.6V260.432H142.369V259.232H143.505V257.024H144.961V259.232H147.249V260.432H144.961V265.6C144.961 266.464 145.281 266.768 146.177 266.768H147.249V268H145.937C144.385 268 143.505 267.36 143.505 265.6ZM157.333 263.6C157.333 266.384 155.333 268.144 152.837 268.144C150.357 268.144 148.469 266.384 148.469 263.6C148.469 260.832 150.421 259.088 152.901 259.088C155.397 259.088 157.333 260.832 157.333 263.6ZM149.957 263.6C149.957 265.824 151.317 266.864 152.837 266.864C154.357 266.864 155.845 265.824 155.845 263.6C155.845 261.392 154.389 260.352 152.885 260.352C151.349 260.352 149.957 261.392 149.957 263.6ZM165.552 265.616C165.552 267.056 164.288 268.144 162.352 268.144C160.304 268.144 158.864 267.024 158.768 265.424H160.272C160.352 266.272 161.104 266.912 162.336 266.912C163.488 266.912 164.128 266.336 164.128 265.616C164.128 263.664 158.944 264.8 158.944 261.536C158.944 260.192 160.208 259.088 162.16 259.088C164.096 259.088 165.376 260.128 165.472 261.84H164.016C163.952 260.96 163.28 260.32 162.112 260.32C161.04 260.32 160.4 260.832 160.4 261.536C160.4 263.616 165.488 262.48 165.552 265.616ZM175.601 260.32C174.177 260.32 172.993 261.264 172.833 262.976H178.369C178.385 261.264 177.105 260.32 175.601 260.32ZM179.697 265.296C179.249 266.896 177.841 268.144 175.665 268.144C173.169 268.144 171.329 266.384 171.329 263.6C171.329 260.832 173.105 259.088 175.665 259.088C178.209 259.088 179.873 260.88 179.873 263.28C179.873 263.6 179.857 263.856 179.825 264.16H172.817C172.929 265.936 174.177 266.912 175.665 266.912C176.977 266.912 177.809 266.24 178.129 265.296H179.697ZM186.06 268V256.16H187.516V268H186.06ZM193.726 260.32C192.302 260.32 191.118 261.264 190.958 262.976H196.494C196.51 261.264 195.23 260.32 193.726 260.32ZM197.822 265.296C197.374 266.896 195.966 268.144 193.79 268.144C191.294 268.144 189.454 266.384 189.454 263.6C189.454 260.832 191.23 259.088 193.79 259.088C196.334 259.088 197.998 260.88 197.998 263.28C197.998 263.6 197.982 263.856 197.95 264.16H190.942C191.054 265.936 192.302 266.912 193.79 266.912C195.102 266.912 195.934 266.24 196.254 265.296H197.822ZM206.336 268V263.04C206.336 261.248 205.36 260.336 203.888 260.336C202.4 260.336 201.376 261.264 201.376 263.152V268H199.92V259.232H201.376V260.48C201.952 259.568 203.008 259.072 204.192 259.072C206.224 259.072 207.776 260.32 207.776 262.832V268H206.336ZM209.61 263.584C209.61 260.848 211.418 259.088 213.786 259.088C215.162 259.088 216.426 259.792 217.034 260.8V256.16H218.506V268H217.034V266.352C216.506 267.328 215.37 268.144 213.77 268.144C211.418 268.144 209.61 266.304 209.61 263.584ZM217.034 263.6C217.034 261.568 215.658 260.352 214.058 260.352C212.458 260.352 211.098 261.52 211.098 263.584C211.098 265.648 212.458 266.864 214.058 266.864C215.658 266.864 217.034 265.664 217.034 263.6ZM220.422 263.584C220.422 260.848 222.23 259.088 224.582 259.088C226.214 259.088 227.334 259.92 227.846 260.832V259.232H229.318V268H227.846V266.368C227.318 267.312 226.182 268.144 224.566 268.144C222.23 268.144 220.422 266.304 220.422 263.584ZM227.846 263.6C227.846 261.568 226.47 260.352 224.87 260.352C223.27 260.352 221.91 261.52 221.91 263.584C221.91 265.648 223.27 266.864 224.87 266.864C226.47 266.864 227.846 265.664 227.846 263.6ZM238.083 265.616C238.083 267.056 236.819 268.144 234.883 268.144C232.835 268.144 231.395 267.024 231.299 265.424H232.803C232.883 266.272 233.635 266.912 234.867 266.912C236.019 266.912 236.659 266.336 236.659 265.616C236.659 263.664 231.475 264.8 231.475 261.536C231.475 260.192 232.739 259.088 234.691 259.088C236.627 259.088 237.907 260.128 238.003 261.84H236.547C236.483 260.96 235.811 260.32 234.643 260.32C233.571 260.32 232.931 260.832 232.931 261.536C232.931 263.616 238.019 262.48 238.083 265.616ZM33.688 287.584C33.688 284.848 35.496 283.088 37.864 283.088C39.24 283.088 40.504 283.792 41.112 284.8V280.16H42.584V292H41.112V290.352C40.584 291.328 39.448 292.144 37.848 292.144C35.496 292.144 33.688 290.304 33.688 287.584ZM41.112 287.6C41.112 285.568 39.736 284.352 38.136 284.352C36.536 284.352 35.176 285.52 35.176 287.584C35.176 289.648 36.536 290.864 38.136 290.864C39.736 290.864 41.112 289.664 41.112 287.6ZM48.7725 284.32C47.3485 284.32 46.1645 285.264 46.0045 286.976H51.5405C51.5565 285.264 50.2765 284.32 48.7725 284.32ZM52.8685 289.296C52.4205 290.896 51.0125 292.144 48.8365 292.144C46.3405 292.144 44.5005 290.384 44.5005 287.6C44.5005 284.832 46.2765 283.088 48.8365 283.088C51.3805 283.088 53.0445 284.88 53.0445 287.28C53.0445 287.6 53.0285 287.856 52.9965 288.16H45.9885C46.1005 289.936 47.3485 290.912 48.8365 290.912C50.1485 290.912 50.9805 290.24 51.3005 289.296H52.8685ZM58.688 287.584C58.688 284.848 60.496 283.088 62.864 283.088C64.24 283.088 65.504 283.792 66.112 284.8V280.16H67.584V292H66.112V290.352C65.584 291.328 64.448 292.144 62.848 292.144C60.496 292.144 58.688 290.304 58.688 287.584ZM66.112 287.6C66.112 285.568 64.736 284.352 63.136 284.352C61.536 284.352 60.176 285.52 60.176 287.584C60.176 289.648 61.536 290.864 63.136 290.864C64.736 290.864 66.112 289.664 66.112 287.6ZM70.0445 292V283.232H71.5005V292H70.0445ZM70.7965 281.808C70.2365 281.808 69.8045 281.376 69.8045 280.816C69.8045 280.256 70.2365 279.824 70.7965 279.824C71.3245 279.824 71.7565 280.256 71.7565 280.816C71.7565 281.376 71.3245 281.808 70.7965 281.808ZM72.942 283.232H74.51L77.246 290.656L79.966 283.232H81.518L78.078 292H76.382L72.942 283.232ZM86.6788 284.32C85.2548 284.32 84.0707 285.264 83.9108 286.976H89.4468C89.4628 285.264 88.1828 284.32 86.6788 284.32ZM90.7748 289.296C90.3268 290.896 88.9188 292.144 86.7428 292.144C84.2468 292.144 82.4068 290.384 82.4068 287.6C82.4068 284.832 84.1828 283.088 86.7428 283.088C89.2868 283.088 90.9508 284.88 90.9508 287.28C90.9508 287.6 90.9348 287.856 90.9028 288.16H83.8948C84.0068 289.936 85.2548 290.912 86.7428 290.912C88.0548 290.912 88.8868 290.24 89.2068 289.296H90.7748ZM94.3286 287.232V292H92.8726V283.232H94.3286V284.656C94.8246 283.68 95.7686 283.072 97.1606 283.072V284.576H96.7766C95.3846 284.576 94.3286 285.2 94.3286 287.232ZM105.145 289.616C105.145 291.056 103.881 292.144 101.945 292.144C99.8974 292.144 98.4574 291.024 98.3614 289.424H99.8654C99.9454 290.272 100.697 290.912 101.929 290.912C103.081 290.912 103.721 290.336 103.721 289.616C103.721 287.664 98.5374 288.8 98.5374 285.536C98.5374 284.192 99.8014 283.088 101.753 283.088C103.689 283.088 104.969 284.128 105.065 285.84H103.609C103.545 284.96 102.873 284.32 101.705 284.32C100.633 284.32 99.9934 284.832 99.9934 285.536C99.9934 287.616 105.081 286.48 105.145 289.616ZM106.657 287.584C106.657 284.848 108.465 283.088 110.817 283.088C112.449 283.088 113.569 283.92 114.081 284.832V283.232H115.553V292H114.081V290.368C113.553 291.312 112.417 292.144 110.801 292.144C108.465 292.144 106.657 290.304 106.657 287.584ZM114.081 287.6C114.081 285.568 112.705 284.352 111.105 284.352C109.505 284.352 108.145 285.52 108.145 287.584C108.145 289.648 109.505 290.864 111.105 290.864C112.705 290.864 114.081 289.664 114.081 287.6ZM124.317 289.616C124.317 291.056 123.053 292.144 121.117 292.144C119.069 292.144 117.629 291.024 117.533 289.424H119.037C119.117 290.272 119.869 290.912 121.101 290.912C122.253 290.912 122.893 290.336 122.893 289.616C122.893 287.664 117.709 288.8 117.709 285.536C117.709 284.192 118.973 283.088 120.925 283.088C122.861 283.088 124.141 284.128 124.237 285.84H122.781C122.717 284.96 122.045 284.32 120.877 284.32C119.805 284.32 119.165 284.832 119.165 285.536C119.165 287.616 124.253 286.48 124.317 289.616ZM130.094 287.6C130.094 284.848 131.87 283.088 134.366 283.088C136.542 283.088 137.966 284.208 138.414 286.048H136.846C136.542 284.992 135.662 284.32 134.366 284.32C132.766 284.32 131.582 285.456 131.582 287.6C131.582 289.776 132.766 290.912 134.366 290.912C135.662 290.912 136.526 290.288 136.846 289.184H138.414C137.966 290.928 136.542 292.144 134.366 292.144C131.87 292.144 130.094 290.384 130.094 287.6ZM148.133 283.232V292H146.677V290.704C146.117 291.616 145.045 292.128 143.877 292.128C141.861 292.128 140.277 290.88 140.277 288.368V283.232H141.717V288.176C141.717 289.952 142.693 290.864 144.165 290.864C145.669 290.864 146.677 289.936 146.677 288.048V283.232H148.133ZM150.591 292V280.16H152.047V292H150.591ZM154.849 289.6V284.432H153.713V283.232H154.849V281.024H156.305V283.232H158.593V284.432H156.305V289.6C156.305 290.464 156.625 290.768 157.521 290.768H158.593V292H157.281C155.729 292 154.849 291.36 154.849 289.6ZM168.133 283.232V292H166.677V290.704C166.117 291.616 165.045 292.128 163.877 292.128C161.861 292.128 160.277 290.88 160.277 288.368V283.232H161.717V288.176C161.717 289.952 162.693 290.864 164.165 290.864C165.669 290.864 166.677 289.936 166.677 288.048V283.232H168.133ZM172.047 287.232V292H170.591V283.232H172.047V284.656C172.543 283.68 173.487 283.072 174.879 283.072V284.576H174.495C173.103 284.576 172.047 285.2 172.047 287.232ZM176.016 287.584C176.016 284.848 177.824 283.088 180.176 283.088C181.808 283.088 182.928 283.92 183.44 284.832V283.232H184.912V292H183.44V290.368C182.912 291.312 181.776 292.144 180.16 292.144C177.824 292.144 176.016 290.304 176.016 287.584ZM183.44 287.6C183.44 285.568 182.064 284.352 180.464 284.352C178.864 284.352 177.504 285.52 177.504 287.584C177.504 289.648 178.864 290.864 180.464 290.864C182.064 290.864 183.44 289.664 183.44 287.6ZM193.677 289.616C193.677 291.056 192.413 292.144 190.477 292.144C188.429 292.144 186.989 291.024 186.893 289.424H188.397C188.477 290.272 189.229 290.912 190.461 290.912C191.613 290.912 192.253 290.336 192.253 289.616C192.253 287.664 187.069 288.8 187.069 285.536C187.069 284.192 188.333 283.088 190.285 283.088C192.221 283.088 193.501 284.128 193.597 285.84H192.141C192.077 284.96 191.405 284.32 190.237 284.32C189.165 284.32 188.525 284.832 188.525 285.536C188.525 287.616 193.613 286.48 193.677 289.616ZM197.156 291.104C197.156 291.664 196.724 292.096 196.196 292.096C195.636 292.096 195.204 291.664 195.204 291.104C195.204 290.544 195.636 290.112 196.196 290.112C196.724 290.112 197.156 290.544 197.156 291.104ZM198.611 282.448L198.419 279.264H199.795L199.619 282.448H198.611ZM200.771 282.448L200.579 279.264H201.955L201.779 282.448H200.771Z" fill="white" fill-opacity="0.7"/>
<path d="M37.554 52.2691C34.702 56.1101 33 60.8481 33 66C33 78.696 43.304 89 56 89" stroke="white" stroke-width="3" stroke-linecap="round" stroke-linejoin="round"/>
<path d="M78.9996 66C78.9996 53.304 68.6956 43 55.9996 43C52.5036 43 49.2146 43.782 46.2476 45.162" stroke="white" stroke-width="3" stroke-linecap="round" stroke-linejoin="round"/>
<path d="M67.2469 80.581V80.0089C67.2469 78.1562 68.3912 77.1754 69.5355 76.3853C70.6526 75.6224 71.7694 74.6416 71.7694 72.8434C71.7694 70.3369 69.7535 68.3206 67.2469 68.3206C64.7404 68.3206 62.7242 70.3369 62.7242 72.8434" stroke="white" stroke-width="3" stroke-linecap="round" stroke-linejoin="round"/>
<path d="M67.2346 87.0926H67.2591" stroke="white" stroke-width="3" stroke-linecap="round" stroke-linejoin="round"/>
<path d="M34.8 146V129.32H37.752L43.608 142.4L49.44 129.32H52.368V146H49.632V134.576L44.544 146H42.648L37.536 134.576V146H34.8ZM55.9641 146V132.776H58.7001V146H55.9641ZM57.3561 131.024C56.3721 131.024 55.6041 130.256 55.6041 129.272C55.6041 128.288 56.3721 127.52 57.3561 127.52C58.3161 127.52 59.0841 128.288 59.0841 129.272C59.0841 130.256 58.3161 131.024 57.3561 131.024ZM62.7242 142.328V135.008H61.1642V132.776H62.7242V129.488H65.4842V132.776H68.7002V135.008H65.4842V142.328C65.4842 143.312 65.8682 143.72 67.0202 143.72H68.7002V146H66.5402C64.1882 146 62.7242 145.016 62.7242 142.328ZM83.8219 139.376C83.8219 143.528 80.7499 146.216 76.9579 146.216C73.1899 146.216 70.3339 143.528 70.3339 139.376C70.3339 135.224 73.3099 132.56 77.0779 132.56C80.8459 132.56 83.8219 135.224 83.8219 139.376ZM73.1179 139.376C73.1179 142.376 74.8939 143.84 76.9579 143.84C78.9979 143.84 81.0139 142.376 81.0139 139.376C81.0139 136.376 79.0699 134.936 77.0299 134.936C74.9659 134.936 73.1179 136.376 73.1179 139.376ZM86.5266 146V128.24H89.2626V146H86.5266ZM105.455 139.376C105.455 143.528 102.383 146.216 98.5907 146.216C94.8227 146.216 91.9667 143.528 91.9667 139.376C91.9667 135.224 94.9427 132.56 98.7107 132.56C102.479 132.56 105.455 135.224 105.455 139.376ZM94.7507 139.376C94.7507 142.376 96.5267 143.84 98.5907 143.84C100.631 143.84 102.647 142.376 102.647 139.376C102.647 136.376 100.703 134.936 98.6627 134.936C96.5987 134.936 94.7507 136.376 94.7507 139.376ZM107.247 139.328C107.247 135.248 110.007 132.56 113.487 132.56C115.647 132.56 117.255 133.568 118.071 134.696V132.776H120.831V146.216C120.831 149.816 118.503 152.528 114.375 152.528C110.847 152.528 108.231 150.776 107.895 147.848H110.607C111.015 149.216 112.479 150.152 114.375 150.152C116.487 150.152 118.071 148.856 118.071 146.216V144.008C117.231 145.136 115.647 146.216 113.487 146.216C110.007 146.216 107.247 143.408 107.247 139.328ZM118.071 139.376C118.071 136.544 116.127 134.936 114.063 134.936C112.023 134.936 110.055 136.472 110.055 139.328C110.055 142.184 112.023 143.84 114.063 143.84C116.127 143.84 118.071 142.232 118.071 139.376ZM124.425 146V132.776H127.161V146H124.425ZM125.817 131.024C124.833 131.024 124.065 130.256 124.065 129.272C124.065 128.288 124.833 127.52 125.817 127.52C126.777 127.52 127.545 128.288 127.545 129.272C127.545 130.256 126.777 131.024 125.817 131.024ZM129.841 139.328C129.841 135.248 132.601 132.56 136.081 132.56C138.313 132.56 139.849 133.616 140.665 134.696V132.776H143.425V146H140.665V144.032C139.825 145.16 138.241 146.216 136.033 146.216C132.601 146.216 129.841 143.408 129.841 139.328ZM140.665 139.376C140.665 136.544 138.721 134.936 136.657 134.936C134.617 134.936 132.649 136.472 132.649 139.328C132.649 142.184 134.617 143.84 136.657 143.84C138.721 143.84 140.665 142.232 140.665 139.376ZM158.821 134.864C156.973 134.864 155.485 136.112 155.197 138.2H162.517C162.469 136.16 160.861 134.864 158.821 134.864ZM165.013 142.064C164.269 144.368 162.181 146.216 158.941 146.216C155.149 146.216 152.341 143.528 152.341 139.376C152.341 135.224 155.029 132.56 158.941 132.56C162.709 132.56 165.373 135.176 165.373 139.064C165.373 139.52 165.349 139.952 165.277 140.408H155.173C155.365 142.592 156.925 143.912 158.941 143.912C160.621 143.912 161.557 143.096 162.061 142.064H165.013ZM34.8 182V165.32H44.616V167.552H37.536V172.472H43.056V174.704H37.536V182H34.8ZM59.7516 175.376C59.7516 179.528 56.6796 182.216 52.8876 182.216C49.1196 182.216 46.2636 179.528 46.2636 175.376C46.2636 171.224 49.2396 168.56 53.0076 168.56C56.7756 168.56 59.7516 171.224 59.7516 175.376ZM49.0476 175.376C49.0476 178.376 50.8236 179.84 52.8876 179.84C54.9276 179.84 56.9436 178.376 56.9436 175.376C56.9436 172.376 54.9996 170.936 52.9596 170.936C50.8956 170.936 49.0476 172.376 49.0476 175.376ZM62.4563 182V164.24H65.1923V182H62.4563ZM67.8724 175.376C67.8724 171.248 70.5604 168.56 74.3524 168.56C77.5924 168.56 79.7044 170.168 80.4484 172.952H77.4964C77.0404 171.68 75.9844 170.864 74.3524 170.864C72.1444 170.864 70.6804 172.496 70.6804 175.376C70.6804 178.28 72.1444 179.912 74.3524 179.912C75.9844 179.912 76.9924 179.192 77.4964 177.824H80.4484C79.7044 180.416 77.5924 182.216 74.3524 182.216C70.5604 182.216 67.8724 179.528 67.8724 175.376ZM83.175 182V164.24H85.911V182H83.175ZM102.103 175.376C102.103 179.528 99.0311 182.216 95.2391 182.216C91.4711 182.216 88.6151 179.528 88.6151 175.376C88.6151 171.224 91.5911 168.56 95.3591 168.56C99.1271 168.56 102.103 171.224 102.103 175.376ZM91.3991 175.376C91.3991 178.376 93.1751 179.84 95.2391 179.84C97.2791 179.84 99.2951 178.376 99.2951 175.376C99.2951 172.376 97.3511 170.936 95.3111 170.936C93.2471 170.936 91.3991 172.376 91.3991 175.376ZM107.544 175.04V182H104.808V168.776H107.544V170.696C108.312 169.376 109.632 168.56 111.504 168.56V171.392H110.808C108.792 171.392 107.544 172.232 107.544 175.04ZM119.587 170.864C117.739 170.864 116.251 172.112 115.963 174.2H123.283C123.235 172.16 121.627 170.864 119.587 170.864ZM125.779 178.064C125.035 180.368 122.947 182.216 119.707 182.216C115.915 182.216 113.107 179.528 113.107 175.376C113.107 171.224 115.795 168.56 119.707 168.56C123.475 168.56 126.139 171.176 126.139 175.064C126.139 175.52 126.115 175.952 126.043 176.408H115.939C116.131 178.592 117.691 179.912 119.707 179.912C121.387 179.912 122.323 179.096 122.827 178.064H125.779Z" fill="white"/>
<path d="M33 221H252" stroke="white" stroke-opacity="0.7" stroke-linecap="round"/>
</svg>
